<?xml version="1.0" encoding="UTF-8" standalone="no"?>
<?xml-stylesheet type="text/css" href="/css/app.css"?><svg
   xmlns:dc="http://purl.org/dc/elements/1.1/"
   xmlns:cc="http://creativecommons.org/ns#"
   xmlns:rdf="http://www.w3.org/1999/02/22-rdf-syntax-ns#"
   xmlns:svg="http://www.w3.org/2000/svg"
   xmlns="http://www.w3.org/2000/svg"
   xmlns:sodipodi="http://sodipodi.sourceforge.net/DTD/sodipodi-0.dtd"
   xmlns:inkscape="http://www.inkscape.org/namespaces/inkscape"
   id="loader"
   data-name="Layer 8"
   viewBox="0 0 245.6 245.8"
   version="1.1"
   inkscape:version="0.91 r13725"
   sodipodi:docname="loader-copy.svg">
  <metadata
     id="metadata41">
    <rdf:RDF>
      <cc:Work
         rdf:about="">
        <dc:format>image/svg+xml</dc:format>
        <dc:type
           rdf:resource="http://purl.org/dc/dcmitype/StillImage" />
        <dc:title>preloader</dc:title>
      </cc:Work>
    </rdf:RDF>
  </metadata>
  <sodipodi:namedview
     pagecolor="#ffffff"
     bordercolor="#666666"
     borderopacity="1"
     objecttolerance="10"
     gridtolerance="10"
     guidetolerance="10"
     inkscape:pageopacity="0"
     inkscape:pageshadow="2"
     inkscape:window-width="1920"
     inkscape:window-height="1017"
     id="namedview39"
     showgrid="false"
     inkscape:zoom="0.33945728"
     inkscape:cx="-323.45065"
     inkscape:cy="212.69032"
     inkscape:window-x="-8"
     inkscape:window-y="-8"
     inkscape:window-maximized="1"
     inkscape:current-layer="loader-copy" />
  <defs
     id="defs3" />
  <title
     id="title5">preloader</title>
  <g
     id="pip-1-1">
    <path
       inkscape:connector-curvature="0"
       d="m 122.75,0 c -5.94,0 -11.39,2.86 -11.39,12.37 0,7.74 4.34,56.26 8,66.93 1,3 5.66,3.14 6.67,0.28 3.73,-10.5 8.11,-59.49 8.11,-67.21 C 134.17,1.94 128.74,0 122.75,0"
       id="path8125" />
    <rect
       y="-0.19999695"
       x="0"
       height="246"
       width="246"
       id="rect8145"
       style="color:#000000;clip-rule:nonzero;display:inline;overflow:visible;visibility:visible;opacity:1;isolation:auto;mix-blend-mode:normal;color-interpolation:sRGB;color-interpolation-filters:linearRGB;solid-color:#000000;solid-opacity:1;fill:none;fill-opacity:0.175;fill-rule:evenodd;stroke:none;stroke-width:20;stroke-linecap:round;stroke-linejoin:miter;stroke-miterlimit:4;stroke-dasharray:none;stroke-dashoffset:0;stroke-opacity:1;color-rendering:auto;image-rendering:auto;shape-rendering:auto;text-rendering:auto;enable-background:accumulate" />
  </g>
  <g
     id="pip-1-2">
    <path
       inkscape:connector-curvature="0"
       d="m 208.56,37.07 c -4.21,-4.22 -9.42,-6.69 -16.8,0.69 -5.47,5.47 -22.15,28.35 -26.95,38.42 -1.3,2.73 2,5.91 4.91,4.52 10.15,-5 32.68,-21.34 38.15,-26.81 6.72,-6.71 4.91,-12.59 0.68,-16.82"
       id="path8129" />
    <rect
       y="-0.19999695"
       x="0"
       height="246"
       width="246"
       id="rect8151"
       style="color:#000000;clip-rule:nonzero;display:inline;overflow:visible;visibility:visible;opacity:1;isolation:auto;mix-blend-mode:normal;color-interpolation:sRGB;color-interpolation-filters:linearRGB;solid-color:#000000;solid-opacity:1;fill:none;fill-opacity:0.175;fill-rule:evenodd;stroke:none;stroke-width:20;stroke-linecap:round;stroke-linejoin:miter;stroke-miterlimit:4;stroke-dasharray:none;stroke-dashoffset:0;stroke-opacity:1;color-rendering:auto;image-rendering:auto;shape-rendering:auto;text-rendering:auto;enable-background:accumulate" />
  </g>
  <g
     id="pip-1-3">
    <path
       id="path8137"
       d="m 245.80001,122.55 c 0,-5.94 -2.86,-11.39 -12.37,-11.39 -7.74,0 -56.26,4.34 -66.93,8 -3,1 -3.14,5.66 -0.28,6.67 10.5,3.73 59.49,8.11 67.21,8.11 10.43,0.03 12.37,-5.4 12.37,-11.39"
       inkscape:connector-curvature="0" />
    <rect
       y="-0.19999695"
       x="0"
       height="246"
       width="246"
       id="rect8151-9"
       style="color:#000000;clip-rule:nonzero;display:inline;overflow:visible;visibility:visible;opacity:1;isolation:auto;mix-blend-mode:normal;color-interpolation:sRGB;color-interpolation-filters:linearRGB;solid-color:#000000;solid-opacity:1;fill:none;fill-opacity:0.175;fill-rule:evenodd;stroke:none;stroke-width:20;stroke-linecap:round;stroke-linejoin:miter;stroke-miterlimit:4;stroke-dasharray:none;stroke-dashoffset:0;stroke-opacity:1;color-rendering:auto;image-rendering:auto;shape-rendering:auto;text-rendering:auto;enable-background:accumulate" />
  </g>
  <g
     id="pip-1-4">
    <path
       id="path8141"
       d="m 208.73001,208.36 c 4.22,-4.21 6.69,-9.42 -0.69,-16.8 -5.47,-5.47 -28.35,-22.15 -38.42,-26.95 -2.73,-1.3 -5.91,2 -4.52,4.91 5,10.15 21.34,32.68 26.81,38.15 6.71,6.72 12.59,4.91 16.82,0.68"
       inkscape:connector-curvature="0" />
    <rect
       y="-0.19999695"
       x="0"
       height="246"
       width="246"
       id="rect8151-7"
       style="color:#000000;clip-rule:nonzero;display:inline;overflow:visible;visibility:visible;opacity:1;isolation:auto;mix-blend-mode:normal;color-interpolation:sRGB;color-interpolation-filters:linearRGB;solid-color:#000000;solid-opacity:1;fill:none;fill-opacity:0.175;fill-rule:evenodd;stroke:none;stroke-width:20;stroke-linecap:round;stroke-linejoin:miter;stroke-miterlimit:4;stroke-dasharray:none;stroke-dashoffset:0;stroke-opacity:1;color-rendering:auto;image-rendering:auto;shape-rendering:auto;text-rendering:auto;enable-background:accumulate" />
  </g>
  <g
     id="pip-1-5">
    <path
       inkscape:connector-curvature="0"
       d="m 123.25001,245.60001 c 5.94,0 11.39,-2.86 11.39,-12.37 0,-7.74 -4.34,-56.26 -8,-66.93 -1,-3 -5.66,-3.14 -6.67,-0.28 -3.73,10.5 -8.11,59.49 -8.11,67.21 -0.03,10.43 5.4,12.37 11.39,12.37"
       id="path8149" />
    <rect
       y="-0.19999695"
       x="0"
       height="246"
       width="246"
       id="rect8151-1"
       style="color:#000000;clip-rule:nonzero;display:inline;overflow:visible;visibility:visible;opacity:1;isolation:auto;mix-blend-mode:normal;color-interpolation:sRGB;color-interpolation-filters:linearRGB;solid-color:#000000;solid-opacity:1;fill:none;fill-opacity:0.175;fill-rule:evenodd;stroke:none;stroke-width:20;stroke-linecap:round;stroke-linejoin:miter;stroke-miterlimit:4;stroke-dasharray:none;stroke-dashoffset:0;stroke-opacity:1;color-rendering:auto;image-rendering:auto;shape-rendering:auto;text-rendering:auto;enable-background:accumulate" />
  </g>
  <g
     id="pip-1-6">
    <path
       inkscape:connector-curvature="0"
       d="m 37.44001,208.53001 c 4.21,4.22 9.42,6.69 16.8,-0.69 5.47,-5.47 22.15,-28.35 26.95,-38.42 1.3,-2.73 -2,-5.91 -4.91,-4.52 -10.15,5 -32.68,21.34 -38.15,26.81 -6.72,6.71 -4.91,12.59 -0.68,16.82"
       id="path8153" />
    <rect
       y="-0.19999695"
       x="0"
       height="246"
       width="246"
       id="rect8151-3"
       style="color:#000000;clip-rule:nonzero;display:inline;overflow:visible;visibility:visible;opacity:1;isolation:auto;mix-blend-mode:normal;color-interpolation:sRGB;color-interpolation-filters:linearRGB;solid-color:#000000;solid-opacity:1;fill:none;fill-opacity:0.175;fill-rule:evenodd;stroke:none;stroke-width:20;stroke-linecap:round;stroke-linejoin:miter;stroke-miterlimit:4;stroke-dasharray:none;stroke-dashoffset:0;stroke-opacity:1;color-rendering:auto;image-rendering:auto;shape-rendering:auto;text-rendering:auto;enable-background:accumulate" />
  </g>
  <g
     id="pip-1-7">
    <path
       id="path8161"
       d="m 0.200007,123.05001 c 0,5.94 2.86,11.39 12.37,11.39 7.74,0 56.26,-4.34 66.93,-8 3,-1 3.14,-5.66 0.28,-6.67 -10.5,-3.73 -59.49,-8.11 -67.21,-8.11 -10.43,-0.03 -12.37,5.4 -12.37,11.39"
       inkscape:connector-curvature="0" />
    <rect
       y="-0.19999695"
       x="0"
       height="246"
       width="246"
       id="rect8151-37"
       style="color:#000000;clip-rule:nonzero;display:inline;overflow:visible;visibility:visible;opacity:1;isolation:auto;mix-blend-mode:normal;color-interpolation:sRGB;color-interpolation-filters:linearRGB;solid-color:#000000;solid-opacity:1;fill:none;fill-opacity:0.175;fill-rule:evenodd;stroke:none;stroke-width:20;stroke-linecap:round;stroke-linejoin:miter;stroke-miterlimit:4;stroke-dasharray:none;stroke-dashoffset:0;stroke-opacity:1;color-rendering:auto;image-rendering:auto;shape-rendering:auto;text-rendering:auto;enable-background:accumulate" />
  </g>
  <g
     id="pip-1-8">
    <path
       id="path8165"
       d="m 37.270007,37.24001 c -4.22,4.21 -6.69,9.42 0.69,16.8 5.47,5.47 28.35,22.15 38.42,26.95 2.73,1.3 5.91,-2 4.52,-4.91 -5,-10.15 -21.34,-32.68 -26.81,-38.15 -6.71,-6.72 -12.59,-4.91 -16.82,-0.68"
       inkscape:connector-curvature="0" />
    <rect
       y="-0.19999695"
       x="0"
       height="246"
       width="246"
       id="rect8151-2"
       style="color:#000000;clip-rule:nonzero;display:inline;overflow:visible;visibility:visible;opacity:1;isolation:auto;mix-blend-mode:normal;color-interpolation:sRGB;color-interpolation-filters:linearRGB;solid-color:#000000;solid-opacity:1;fill:none;fill-opacity:0.175;fill-rule:evenodd;stroke:none;stroke-width:20;stroke-linecap:round;stroke-linejoin:miter;stroke-miterlimit:4;stroke-dasharray:none;stroke-dashoffset:0;stroke-opacity:1;color-rendering:auto;image-rendering:auto;shape-rendering:auto;text-rendering:auto;enable-background:accumulate" />
  </g>
  <g
     id="pip-2-1">
    <path
       id="path9"
       d="m 122.75,0 c -5.94,0 -11.39,2.86 -11.39,12.37 0,7.74 4.34,56.26 8,66.93 1,3 5.66,3.14 6.67,0.28 3.73,-10.5 8.11,-59.49 8.11,-67.21 C 134.17,1.94 128.74,0 122.75,0"
       inkscape:connector-curvature="0" />
    <rect
       y="-0.19999695"
       x="0"
       height="246"
       width="246"
       id="rect8151-8"
       style="color:#000000;clip-rule:nonzero;display:inline;overflow:visible;visibility:visible;opacity:1;isolation:auto;mix-blend-mode:normal;color-interpolation:sRGB;color-interpolation-filters:linearRGB;solid-color:#000000;solid-opacity:1;fill:none;fill-opacity:0.175;fill-rule:evenodd;stroke:none;stroke-width:20;stroke-linecap:round;stroke-linejoin:miter;stroke-miterlimit:4;stroke-dasharray:none;stroke-dashoffset:0;stroke-opacity:1;color-rendering:auto;image-rendering:auto;shape-rendering:auto;text-rendering:auto;enable-background:accumulate" />
  </g>
  <g
     id="pip-2-2">
    <path
       id="path11"
       d="m 208.56,37.07 c -4.21,-4.22 -9.42,-6.69 -16.8,0.69 -5.47,5.47 -22.15,28.35 -26.95,38.42 -1.3,2.73 2,5.91 4.91,4.52 10.15,-5 32.68,-21.34 38.15,-26.81 6.72,-6.71 4.91,-12.59 0.68,-16.82"
       inkscape:connector-curvature="0" />
    <rect
       y="-0.19999695"
       x="0"
       height="246"
       width="246"
       id="rect8151-5"
       style="color:#000000;clip-rule:nonzero;display:inline;overflow:visible;visibility:visible;opacity:1;isolation:auto;mix-blend-mode:normal;color-interpolation:sRGB;color-interpolation-filters:linearRGB;solid-color:#000000;solid-opacity:1;fill:none;fill-opacity:0.175;fill-rule:evenodd;stroke:none;stroke-width:20;stroke-linecap:round;stroke-linejoin:miter;stroke-miterlimit:4;stroke-dasharray:none;stroke-dashoffset:0;stroke-opacity:1;color-rendering:auto;image-rendering:auto;shape-rendering:auto;text-rendering:auto;enable-background:accumulate" />
  </g>
  <g
     id="pip-2-3">
    <path
       inkscape:connector-curvature="0"
       d="m 245.80001,122.55 c 0,-5.94 -2.86,-11.39 -12.37,-11.39 -7.74,0 -56.26,4.34 -66.93,8 -3,1 -3.14,5.66 -0.28,6.67 10.5,3.73 59.49,8.11 67.21,8.11 10.43,0.03 12.37,-5.4 12.37,-11.39"
       id="path8089" />
    <rect
       y="-0.19999695"
       x="0"
       height="246"
       width="246"
       id="rect8151-50"
       style="color:#000000;clip-rule:nonzero;display:inline;overflow:visible;visibility:visible;opacity:1;isolation:auto;mix-blend-mode:normal;color-interpolation:sRGB;color-interpolation-filters:linearRGB;solid-color:#000000;solid-opacity:1;fill:none;fill-opacity:0.175;fill-rule:evenodd;stroke:none;stroke-width:20;stroke-linecap:round;stroke-linejoin:miter;stroke-miterlimit:4;stroke-dasharray:none;stroke-dashoffset:0;stroke-opacity:1;color-rendering:auto;image-rendering:auto;shape-rendering:auto;text-rendering:auto;enable-background:accumulate" />
  </g>
  <g
     id="pip-2-4">
    <path
       inkscape:connector-curvature="0"
       d="m 208.73001,208.36 c 4.22,-4.21 6.69,-9.42 -0.69,-16.8 -5.47,-5.47 -28.35,-22.15 -38.42,-26.95 -2.73,-1.3 -5.91,2 -4.52,4.91 5,10.15 21.34,32.68 26.81,38.15 6.71,6.72 12.59,4.91 16.82,0.68"
       id="path8093" />
    <rect
       y="-0.19999695"
       x="0"
       height="246"
       width="246"
       id="rect8151-6"
       style="color:#000000;clip-rule:nonzero;display:inline;overflow:visible;visibility:visible;opacity:1;isolation:auto;mix-blend-mode:normal;color-interpolation:sRGB;color-interpolation-filters:linearRGB;solid-color:#000000;solid-opacity:1;fill:none;fill-opacity:0.175;fill-rule:evenodd;stroke:none;stroke-width:20;stroke-linecap:round;stroke-linejoin:miter;stroke-miterlimit:4;stroke-dasharray:none;stroke-dashoffset:0;stroke-opacity:1;color-rendering:auto;image-rendering:auto;shape-rendering:auto;text-rendering:auto;enable-background:accumulate" />
  </g>
  <g
     id="pip-2-5">
    <path
       id="path8101"
       d="m 123.25001,245.6 c 5.94,0 11.39,-2.86 11.39,-12.37 0,-7.74 -4.34,-56.26 -8,-66.93 -1,-3 -5.66,-3.14 -6.67,-0.28 -3.73,10.5 -8.11,59.49 -8.11,67.21 -0.03,10.43 5.4,12.37 11.39,12.37"
       inkscape:connector-curvature="0" />
    <rect
       y="-0.19999695"
       x="0"
       height="246"
       width="246"
       id="rect8151-19"
       style="color:#000000;clip-rule:nonzero;display:inline;overflow:visible;visibility:visible;opacity:1;isolation:auto;mix-blend-mode:normal;color-interpolation:sRGB;color-interpolation-filters:linearRGB;solid-color:#000000;solid-opacity:1;fill:none;fill-opacity:0.175;fill-rule:evenodd;stroke:none;stroke-width:20;stroke-linecap:round;stroke-linejoin:miter;stroke-miterlimit:4;stroke-dasharray:none;stroke-dashoffset:0;stroke-opacity:1;color-rendering:auto;image-rendering:auto;shape-rendering:auto;text-rendering:auto;enable-background:accumulate" />
  </g>
  <g
     id="pip-2-6">
    <path
       id="path8105"
       d="m 37.44001,208.53 c 4.21,4.22 9.42,6.69 16.8,-0.69 5.47,-5.47 22.15,-28.35 26.95,-38.42 1.3,-2.73 -2,-5.91 -4.91,-4.52 -10.15,5 -32.68,21.34 -38.15,26.81 -6.72,6.71 -4.91,12.59 -0.68,16.82"
       inkscape:connector-curvature="0" />
    <rect
       y="-0.19999695"
       x="0"
       height="246"
       width="246"
       id="rect8151-80"
       style="color:#000000;clip-rule:nonzero;display:inline;overflow:visible;visibility:visible;opacity:1;isolation:auto;mix-blend-mode:normal;color-interpolation:sRGB;color-interpolation-filters:linearRGB;solid-color:#000000;solid-opacity:1;fill:none;fill-opacity:0.175;fill-rule:evenodd;stroke:none;stroke-width:20;stroke-linecap:round;stroke-linejoin:miter;stroke-miterlimit:4;stroke-dasharray:none;stroke-dashoffset:0;stroke-opacity:1;color-rendering:auto;image-rendering:auto;shape-rendering:auto;text-rendering:auto;enable-background:accumulate" />
  </g>
  <g
     id="pip-2-7">
    <path
       inkscape:connector-curvature="0"
       d="m 0.20001,123.05 c 0,5.94 2.86,11.39 12.37,11.39 7.74,0 56.26,-4.34 66.93,-8 3,-1 3.14,-5.66 0.28,-6.67 -10.5,-3.73 -59.49,-8.11 -67.21,-8.11 -10.43,-0.03 -12.37,5.4 -12.37,11.39"
       id="path8113" />
    <rect
       y="-0.19999695"
       x="0"
       height="246"
       width="246"
       id="rect8151-4"
       style="color:#000000;clip-rule:nonzero;display:inline;overflow:visible;visibility:visible;opacity:1;isolation:auto;mix-blend-mode:normal;color-interpolation:sRGB;color-interpolation-filters:linearRGB;solid-color:#000000;solid-opacity:1;fill:none;fill-opacity:0.175;fill-rule:evenodd;stroke:none;stroke-width:20;stroke-linecap:round;stroke-linejoin:miter;stroke-miterlimit:4;stroke-dasharray:none;stroke-dashoffset:0;stroke-opacity:1;color-rendering:auto;image-rendering:auto;shape-rendering:auto;text-rendering:auto;enable-background:accumulate" />
  </g>
  <g
     id="pip-2-8">
    <path
       inkscape:connector-curvature="0"
       d="m 37.27001,37.24 c -4.22,4.21 -6.69,9.42 0.69,16.8 5.47,5.47 28.35,22.15 38.42,26.95 2.73,1.3 5.91,-2 4.52,-4.91 -5,-10.15 -21.34,-32.68 -26.81,-38.15 -6.71,-6.72 -12.59,-4.91 -16.82,-0.68"
       id="path8117" />
    <rect
       y="-0.19999695"
       x="0"
       height="246"
       width="246"
       id="rect8151-508"
       style="color:#000000;clip-rule:nonzero;display:inline;overflow:visible;visibility:visible;opacity:1;isolation:auto;mix-blend-mode:normal;color-interpolation:sRGB;color-interpolation-filters:linearRGB;solid-color:#000000;solid-opacity:1;fill:none;fill-opacity:0.175;fill-rule:evenodd;stroke:none;stroke-width:20;stroke-linecap:round;stroke-linejoin:miter;stroke-miterlimit:4;stroke-dasharray:none;stroke-dashoffset:0;stroke-opacity:1;color-rendering:auto;image-rendering:auto;shape-rendering:auto;text-rendering:auto;enable-background:accumulate" />
  </g>
</svg>
