<?xml version="1.0" encoding="UTF-8" standalone="no"?>
<svg width="12px" height="9px" viewBox="0 0 12 9" version="1.1" xmlns="http://www.w3.org/2000/svg" xmlns:xlink="http://www.w3.org/1999/xlink">
    <!-- Generator: Sketch 39.1 (31720) - http://www.bohemiancoding.com/sketch -->
    <title>shear_active-secondary</title>
    <desc>Created with Sketch.</desc>
    <defs>
        <rect id="path-1" x="0" y="0" width="12" height="9"></rect>
    </defs>
    <g id="Item" stroke="none" stroke-width="1" fill="none" fill-rule="evenodd">
        <g id="shear_active-secondary">
            <g id="Line-Copy-34">
                <mask id="mask-2" fill="white">
                    <use xlink:href="#path-1"></use>
                </mask>
                <g id="Mask"></g>
                <polyline stroke="#93C9C8" stroke-width="2" mask="url(#mask-2)" points="-330 2 -324 8 -318.005506 2 -312.005506 8 -306.011012 2 -300 8 -294.005506 2 -288.005506 8 -282.011012 2 -276 8 -270.005506 2 -264.005506 8 -258.011012 2 -252 8 -246.005506 2 -240.005506 8 -234.011012 2 -228 8 -222.005506 2 -216.005506 8 -210.011012 2 -204 8 -198.005506 2 -192.005506 8 -186.011012 2 -180 8 -174.005506 2 -168.005506 8 -162.011012 2 -156 8 -150.005506 2 -144.005506 8 -138.011012 2 -132 8 -126.005506 2 -120.005506 8 -114.011012 2 -108 8 -102.005506 2 -96.0055059 8 -90.0110118 2 -84 8 -78.0055059 2 -72.0055059 8 -66.0110118 2 -60 8 -54.0055059 2 -48.0055059 8 -42.0110118 2 -36 8 -30.0055059 2 -24.0055059 8 -18.0110118 2 -12 8 -6.0055059 2 -0.00550589545 8 5.98898821 2 12 8 17.9944941 2 23.9944941 8 29.9889882 2 36 8 41.9944941 2 47.9944941 8 53.9889882 2 60 8 65.9944941 2 71.9944941 8 77.9889882 2 84 8 89.9944941 2 95.9944941 8 101.988988 2 108 8 113.994494 2 119.994494 8 125.988988 2 132 8 137.994494 2 143.994494 8 149.988988 2 156 8 161.994494 2 167.994494 8 173.988988 2 180 8 185.994494 2 191.994494 8 197.988988 2 204 8 209.994494 2 215.994494 8 221.988988 2 228 8 233.994494 2 239.994494 8 245.988988 2 252 8 257.994494 2 263.994494 8 269.988988 2 276 8 281.994494 2 287.994494 8 293.988988 2 300 8 305.994494 2 311.994494 8 317.988988 2 324 8 329.994494 2 335.994494 8 341.988988 2"></polyline>
            </g>
        </g>
    </g>
</svg>