<?xml version="1.0" encoding="utf-8"?>
<!-- Generator: Adobe Illustrator 16.0.0, SVG Export Plug-In . SVG Version: 6.00 Build 0)  -->
<!DOCTYPE svg PUBLIC "-//W3C//DTD SVG 1.1//EN" "http://www.w3.org/Graphics/SVG/1.1/DTD/svg11.dtd">
<svg version="1.1"
	 id="svg2" xmlns:dc="http://purl.org/dc/elements/1.1/" xmlns:cc="http://creativecommons.org/ns#" xmlns:rdf="http://www.w3.org/1999/02/22-rdf-syntax-ns#" xmlns:svg="http://www.w3.org/2000/svg" xmlns:sodipodi="http://sodipodi.sourceforge.net/DTD/sodipodi-0.dtd" xmlns:inkscape="http://www.inkscape.org/namespaces/inkscape" inkscape:version="0.48.4 r9939" sodipodi:docname="stars.svg"
	 xmlns="http://www.w3.org/2000/svg" xmlns:xlink="http://www.w3.org/1999/xlink" x="0px" y="0px" width="108px" height="220px"
	 viewBox="0 0 108 220" enable-background="new 0 0 108 220" xml:space="preserve">
<sodipodi:namedview  showguides="true" showgrid="false" inkscape:cy="82.446101" inkscape:cx="40.134431" inkscape:zoom="4.4228389" borderopacity="1.0" bordercolor="#666666" pagecolor="#ffffff" id="base" inkscape:window-maximized="1" inkscape:window-y="-8" inkscape:window-x="-8" inkscape:window-height="1018" inkscape:current-layer="layer2" inkscape:document-units="px" inkscape:pageopacity="0.0" inkscape:window-width="1920" inkscape:guide-bbox="true" inkscape:pageshadow="2">
	</sodipodi:namedview>
<g>
	<polygon fill="#ECE9E5" points="11.539,16.099 6.316,19.002 7.32,12.795 3,8.388 8.928,7.487 11.539,1.881 14.15,7.487 
		20.074,8.388 15.857,12.795 16.861,19.002 	"/>
	
		<linearGradient id="SVGID_1_" gradientUnits="userSpaceOnUse" x1="-146.1343" y1="-59.2974" x2="-135.686" y2="-59.2974" gradientTransform="matrix(1.6364 0 0 -1.6364 242.1361 -66.5914)">
		<stop  offset="0" style="stop-color:#FBD568"/>
		<stop  offset="0.5" style="stop-color:#FBD568"/>
		<stop  offset="0.5" style="stop-color:#ECE9E5"/>
		<stop  offset="1" style="stop-color:#ECE9E5"/>
	</linearGradient>
	<polygon fill="url(#SVGID_1_)" points="11.545,36.098 6.323,39.002 7.327,32.794 3.008,28.389 8.934,27.487 11.545,21.881 
		14.155,27.487 20.081,28.389 15.864,32.794 16.866,39.002 	"/>
	<polygon fill="#FBD568" points="11.545,56.098 6.323,59.002 7.327,52.794 3.008,48.389 8.934,47.487 11.545,41.88 14.155,47.487 
		20.081,48.389 15.864,52.794 16.866,59.002 	"/>
	<polygon fill="#FBD568" points="11.545,76.098 6.323,79.001 7.327,72.794 3.008,68.389 8.934,67.486 11.545,61.88 14.156,67.486 
		20.082,68.389 15.864,72.794 16.867,79.001 	"/>
	<polygon fill="#FBD568" points="11.545,96.098 6.323,99.001 7.327,92.794 3.008,88.388 8.934,87.487 11.545,81.88 14.156,87.487 
		20.082,88.388 15.864,92.794 16.867,99.001 	"/>
	<polygon fill="#FBD568" points="11.545,116.097 6.323,119.001 7.327,112.793 3.008,108.388 8.934,107.487 11.545,101.879 
		14.155,107.487 20.081,108.388 15.864,112.793 16.866,119.001 	"/>
	<polygon fill="#FBD568" points="11.545,136.098 6.323,139.001 7.327,132.793 3.008,128.388 8.934,127.486 11.545,121.879 
		14.156,127.486 20.082,128.388 15.864,132.793 16.867,139.001 	"/>
	<polygon fill="#FBD568" points="11.545,156.097 6.323,159.001 7.327,152.793 3.008,148.387 8.934,147.486 11.545,141.879 
		14.155,147.486 20.081,148.387 15.864,152.793 16.866,159.001 	"/>
	<polygon fill="#FBD568" points="11.545,176.098 6.323,179.001 7.327,172.793 3.008,168.388 8.934,167.486 11.545,161.879 
		14.155,167.486 20.081,168.388 15.864,172.793 16.866,179.001 	"/>
	<polygon fill="#FBD568" points="11.545,196.096 6.323,199 7.327,192.792 3.008,188.387 8.934,187.485 11.545,181.878 
		14.155,187.485 20.081,188.387 15.864,192.792 16.866,199 	"/>
	<polygon fill="#FBD568" points="11.545,216.096 6.323,219 7.327,212.792 3.008,208.386 8.934,207.485 11.545,201.878 
		14.156,207.485 20.082,208.386 15.864,212.792 16.867,219 	"/>
</g>
<polygon fill="#ECE9E5" points="32.82,16.099 27.498,19.002 28.504,12.795 24.186,8.388 30.111,7.487 32.82,1.881 35.434,7.487 
	41.357,8.388 37.041,12.795 38.045,19.002 "/>
<polygon fill="#ECE9E5" points="32.82,36.098 27.499,39.002 28.503,32.794 24.186,28.389 30.109,27.487 32.82,21.881 35.434,27.487 
	41.357,28.389 37.04,32.794 38.044,39.002 "/>
<polygon fill="#ECE9E5" points="32.82,56.098 27.499,59.002 28.503,52.794 24.186,48.389 30.109,47.487 32.82,41.88 35.434,47.487 
	41.357,48.389 37.04,52.794 38.044,59.002 "/>
<linearGradient id="SVGID_2_" gradientUnits="userSpaceOnUse" x1="-133.1655" y1="-83.7412" x2="-122.7173" y2="-83.7412" gradientTransform="matrix(1.6364 0 0 -1.6364 242.1361 -66.5914)">
	<stop  offset="0" style="stop-color:#FBD568"/>
	<stop  offset="0.5" style="stop-color:#FBD568"/>
	<stop  offset="0.5" style="stop-color:#ECE9E5"/>
	<stop  offset="1" style="stop-color:#ECE9E5"/>
</linearGradient>
<polygon fill="url(#SVGID_2_)" points="32.821,76.098 27.499,79.001 28.503,72.794 24.185,68.389 30.11,67.486 32.821,61.88 
	35.433,67.486 41.358,68.389 37.041,72.794 38.044,79.001 "/>
<polygon fill="#FBD568" points="32.821,96.098 27.499,99.001 28.503,92.794 24.185,88.388 30.11,87.487 32.821,81.88 35.433,87.487 
	41.358,88.388 37.041,92.794 38.044,99.001 "/>
<polygon fill="#FBD568" points="32.82,116.097 27.499,119.001 28.503,112.793 24.186,108.388 30.109,107.487 32.82,101.879 
	35.434,107.487 41.357,108.388 37.04,112.793 38.044,119.001 "/>
<polygon fill="#FBD568" points="32.821,136.098 27.499,139.001 28.503,132.793 24.185,128.388 30.11,127.486 32.821,121.879 
	35.433,127.486 41.358,128.388 37.041,132.793 38.044,139.001 "/>
<polygon fill="#FBD568" points="32.82,156.097 27.499,159.001 28.503,152.793 24.186,148.387 30.109,147.486 32.82,141.879 
	35.434,147.486 41.357,148.387 37.04,152.793 38.044,159.001 "/>
<polygon fill="#FBD568" points="32.82,176.098 27.499,179.001 28.503,172.793 24.186,168.388 30.109,167.486 32.82,161.879 
	35.434,167.486 41.357,168.388 37.04,172.793 38.044,179.001 "/>
<polygon fill="#FBD568" points="32.82,196.096 27.499,199 28.503,192.792 24.186,188.387 30.109,187.485 32.82,181.878 
	35.434,187.485 41.357,188.387 37.04,192.792 38.044,199 "/>
<polygon fill="#FBD568" points="32.821,216.096 27.499,219 28.503,212.792 24.185,208.386 30.11,207.485 32.821,201.878 
	35.433,207.485 41.358,208.386 37.041,212.792 38.044,219 "/>
<polygon fill="#ECE9E5" points="54.002,16.099 48.678,19.002 49.684,12.795 45.465,8.388 51.391,7.487 54.002,1.881 56.613,7.487 
	62.539,8.388 58.32,12.795 59.324,19.002 "/>
<polygon fill="#ECE9E5" points="54.003,36.098 48.681,39.002 49.686,32.794 45.466,28.389 51.392,27.487 54.003,21.881 
	56.613,27.487 62.539,28.389 58.322,32.794 59.326,39.002 "/>
<polygon fill="#ECE9E5" points="54.003,56.098 48.681,59.002 49.686,52.794 45.466,48.389 51.392,47.487 54.003,41.88 
	56.613,47.487 62.539,48.389 58.322,52.794 59.326,59.002 "/>
<polygon fill="#ECE9E5" points="54.002,76.098 48.68,79.001 49.684,72.794 45.464,68.389 51.391,67.486 54.002,61.88 56.613,67.486 
	62.539,68.389 58.322,72.794 59.326,79.001 "/>
<polygon fill="#ECE9E5" points="54.002,96.098 48.68,99.001 49.684,92.794 45.464,88.388 51.391,87.487 54.002,81.88 56.613,87.487 
	62.539,88.388 58.322,92.794 59.326,99.001 "/>
<linearGradient id="SVGID_3_" gradientUnits="userSpaceOnUse" x1="-120.188" y1="-108.1855" x2="-109.7394" y2="-108.1855" gradientTransform="matrix(1.6364 0 0 -1.6364 242.1361 -66.5914)">
	<stop  offset="0" style="stop-color:#FBD568"/>
	<stop  offset="0.5" style="stop-color:#FBD568"/>
	<stop  offset="0.5" style="stop-color:#ECE9E5"/>
	<stop  offset="1" style="stop-color:#ECE9E5"/>
</linearGradient>
<polygon fill="url(#SVGID_3_)" points="54.003,116.097 48.681,119.001 49.686,112.793 45.466,108.388 51.392,107.487 
	54.003,101.879 56.613,107.487 62.539,108.388 58.322,112.793 59.326,119.001 "/>
<polygon fill="#FBD568" points="54.002,136.098 48.68,139.001 49.684,132.793 45.464,128.388 51.391,127.486 54.002,121.879 
	56.613,127.486 62.539,128.388 58.322,132.793 59.326,139.001 "/>
<polygon fill="#FBD568" points="54.003,156.097 48.681,159.001 49.686,152.793 45.466,148.387 51.392,147.486 54.003,141.879 
	56.613,147.486 62.539,148.387 58.322,152.793 59.326,159.001 "/>
<polygon fill="#FBD568" points="54.003,176.098 48.681,179.001 49.686,172.793 45.466,168.388 51.392,167.486 54.003,161.879 
	56.613,167.486 62.539,168.388 58.322,172.793 59.326,179.001 "/>
<polygon fill="#FBD568" points="54.003,196.096 48.681,199 49.686,192.792 45.466,188.387 51.392,187.485 54.003,181.878 
	56.613,187.485 62.539,188.387 58.322,192.792 59.326,199 "/>
<polygon fill="#FBD568" points="54.002,216.096 48.68,219 49.684,212.792 45.464,208.386 51.391,207.485 54.002,201.878 
	56.613,207.485 62.539,208.386 58.322,212.792 59.326,219 "/>
<polygon fill="#ECE9E5" points="75.182,16.099 69.959,19.002 70.963,12.795 66.646,8.388 72.57,7.487 75.182,1.881 77.893,7.487 
	83.818,8.388 79.5,12.795 80.504,19.002 "/>
<polygon fill="#ECE9E5" points="75.184,36.098 69.961,39.002 70.965,32.794 66.646,28.389 72.571,27.487 75.184,21.881 
	77.895,27.487 83.819,28.389 79.501,32.794 80.505,39.002 "/>
<polygon fill="#ECE9E5" points="75.184,56.098 69.961,59.002 70.965,52.794 66.646,48.389 72.571,47.487 75.184,41.88 
	77.895,47.487 83.819,48.389 79.501,52.794 80.505,59.002 "/>
<polygon fill="#ECE9E5" points="75.184,76.098 69.961,79.001 70.965,72.794 66.646,68.389 72.57,67.486 75.184,61.88 77.895,67.486 
	83.818,68.389 79.5,72.794 80.506,79.001 "/>
<polygon fill="#ECE9E5" points="75.184,96.098 69.961,99.001 70.965,92.794 66.646,88.388 72.57,87.487 75.184,81.88 77.895,87.487 
	83.818,88.388 79.5,92.794 80.506,99.001 "/>
<polygon fill="#ECE9E5" points="75.184,116.097 69.961,119.001 70.965,112.793 66.646,108.388 72.571,107.487 75.184,101.879 
	77.895,107.487 83.819,108.388 79.501,112.793 80.505,119.001 "/>
<polygon fill="#ECE9E5" points="75.184,136.098 69.961,139.001 70.965,132.793 66.646,128.388 72.57,127.486 75.184,121.879 
	77.895,127.486 83.818,128.388 79.5,132.793 80.506,139.001 "/>
<linearGradient id="SVGID_4_" gradientUnits="userSpaceOnUse" x1="-107.2241" y1="-132.6299" x2="-96.7759" y2="-132.6299" gradientTransform="matrix(1.6364 0 0 -1.6364 242.1361 -66.5914)">
	<stop  offset="0" style="stop-color:#FBD568"/>
	<stop  offset="0.5" style="stop-color:#FBD568"/>
	<stop  offset="0.5" style="stop-color:#ECE9E5"/>
	<stop  offset="1" style="stop-color:#ECE9E5"/>
</linearGradient>
<polygon fill="url(#SVGID_4_)" points="75.184,156.097 69.961,159.001 70.965,152.793 66.646,148.387 72.571,147.486 
	75.184,141.879 77.895,147.486 83.819,148.387 79.501,152.793 80.505,159.001 "/>
<polygon fill="#FBD568" points="75.184,176.098 69.961,179.001 70.965,172.793 66.646,168.388 72.571,167.486 75.184,161.879 
	77.895,167.486 83.819,168.388 79.501,172.793 80.505,179.001 "/>
<polygon fill="#FBD568" points="75.184,196.096 69.961,199 70.965,192.792 66.646,188.387 72.571,187.485 75.184,181.878 
	77.895,187.485 83.819,188.387 79.501,192.792 80.505,199 "/>
<polygon fill="#FBD568" points="75.184,216.096 69.961,219 70.965,212.792 66.646,208.386 72.57,207.485 75.184,201.878 
	77.895,207.485 83.818,208.386 79.5,212.792 80.506,219 "/>
<polygon fill="#ECE9E5" points="96.462,16.099 91.14,19.002 92.144,12.795 87.926,8.388 93.851,7.487 96.462,1.881 99.073,7.487 
	105,8.388 100.68,12.795 101.685,19.002 "/>
<polygon fill="#ECE9E5" points="96.463,36.098 91.141,39.002 92.146,32.794 87.927,28.389 93.852,27.487 96.463,21.881 
	99.074,27.487 105,28.389 100.681,32.794 101.686,39.002 "/>
<polygon fill="#ECE9E5" points="96.463,56.098 91.141,59.002 92.146,52.794 87.927,48.389 93.852,47.487 96.463,41.88 
	99.074,47.487 105,48.389 100.681,52.794 101.686,59.002 "/>
<polygon fill="#ECE9E5" points="96.462,76.098 91.14,79.001 92.145,72.794 87.926,68.389 93.851,67.486 96.462,61.88 99.074,67.486 
	105,68.389 100.681,72.794 101.685,79.001 "/>
<polygon fill="#ECE9E5" points="96.462,96.098 91.14,99.001 92.145,92.794 87.926,88.388 93.851,87.487 96.462,81.88 99.074,87.487 
	105,88.388 100.681,92.794 101.685,99.001 "/>
<polygon fill="#ECE9E5" points="96.463,116.097 91.141,119.001 92.146,112.793 87.927,108.388 93.852,107.487 96.463,101.879 
	99.074,107.487 105,108.388 100.681,112.793 101.686,119.001 "/>
<polygon fill="#ECE9E5" points="96.462,136.098 91.14,139.001 92.145,132.793 87.926,128.388 93.851,127.486 96.462,121.879 
	99.074,127.486 105,128.388 100.681,132.793 101.685,139.001 "/>
<polygon fill="#ECE9E5" points="96.463,156.097 91.141,159.001 92.146,152.793 87.927,148.387 93.852,147.486 96.463,141.879 
	99.074,147.486 105,148.387 100.681,152.793 101.686,159.001 "/>
<polygon fill="#ECE9E5" points="96.463,176.098 91.141,179.001 92.146,172.793 87.927,168.388 93.852,167.486 96.463,161.879 
	99.074,167.486 105,168.388 100.681,172.793 101.686,179.001 "/>
<linearGradient id="SVGID_5_" gradientUnits="userSpaceOnUse" x1="-94.2544" y1="-157.0737" x2="-83.8053" y2="-157.0737" gradientTransform="matrix(1.6364 0 0 -1.6364 242.1361 -66.5914)">
	<stop  offset="0" style="stop-color:#FBD568"/>
	<stop  offset="0.5" style="stop-color:#FBD568"/>
	<stop  offset="0.5" style="stop-color:#ECE9E5"/>
	<stop  offset="1" style="stop-color:#ECE9E5"/>
</linearGradient>
<polygon fill="url(#SVGID_5_)" points="96.463,196.096 91.141,199 92.146,192.792 87.927,188.387 93.852,187.485 96.463,181.878 
	99.074,187.485 105,188.387 100.681,192.792 101.686,199 "/>
<polygon fill="#FBD568" points="96.462,216.096 91.14,219 92.145,212.792 87.926,208.386 93.851,207.485 96.462,201.878 
	99.074,207.485 105,208.386 100.681,212.792 101.685,219 "/>
</svg>
