<?xml version="1.0" encoding="UTF-8" standalone="no"?>
<!-- Created with Inkscape (http://www.inkscape.org/) -->
<svg xmlns:dc="http://purl.org/dc/elements/1.1/" xmlns:cc="http://creativecommons.org/ns#" xmlns:rdf="http://www.w3.org/1999/02/22-rdf-syntax-ns#" xmlns:svg="http://www.w3.org/2000/svg" xmlns="http://www.w3.org/2000/svg" xmlns:sodipodi="http://sodipodi.sourceforge.net/DTD/sodipodi-0.dtd" xmlns:inkscape="http://www.inkscape.org/namespaces/inkscape" width="60" height="180" id="svg5177" version="1.1" inkscape:version="0.48.4 r9939" sodipodi:docname="New document 3">
  <defs id="defs5179"/>
  <sodipodi:namedview id="base" pagecolor="#ffffff" bordercolor="#666666" borderopacity="1.0" inkscape:pageopacity="0.0" inkscape:pageshadow="2" inkscape:zoom="3.7631002" inkscape:cx="67.511706" inkscape:cy="103.61783" inkscape:document-units="px" inkscape:current-layer="layer1" showgrid="false" showguides="true" inkscape:guide-bbox="true" inkscape:window-width="1920" inkscape:window-height="1058" inkscape:window-x="1912" inkscape:window-y="-8" inkscape:window-maximized="1">
    <sodipodi:guide orientation="-0.70710678,0.70710678" position="-251.07143,220.71429" id="guide6018"/>
    <sodipodi:guide orientation="1,0" position="-251.78571,53.214286" id="guide6020"/>
  </sodipodi:namedview>
  <metadata id="metadata5182">
    <rdf:RDF>
      <cc:Work rdf:about="">
        <dc:format>image/svg+xml</dc:format>
        <dc:type rdf:resource="http://purl.org/dc/dcmitype/StillImage"/>
        <dc:title/>
      </cc:Work>
    </rdf:RDF>
  </metadata>
  <g inkscape:label="Layer 1" inkscape:groupmode="layer" id="layer1" transform="translate(0,-872.36218)">
    <g id="g4011" transform="matrix(1.3338965,0,0,-1.3338965,32.95258,902.36285)">
      <path d="M 0,0 3.974,0 4.501,4.959 0,4.959 0.008,7.443 c 0,1.293 0.123,1.987 1.98,1.987 l 2.484,0 0,4.959 -3.974,0 c -4.77,0 -6.451,-2.407 -6.451,-6.452 l 0,-2.978 -2.976,0 0,-4.959 2.976,0 0,-14.391 5.953,0 L 0,0 z m 20.277,0 c 0,-12.422 -10.07,-22.49 -22.49,-22.49 -12.422,0 -22.491,10.068 -22.491,22.49 0,12.42 10.069,22.49 22.491,22.49 12.42,0 22.49,-10.07 22.49,-22.49" style="fill:#ffffff;fill-opacity:1;fill-rule:nonzero;stroke:none" id="path4013" inkscape:connector-curvature="0"/>
    </g>
    <g id="g4019" transform="matrix(1.3338965,0,0,-1.3338965,49.211445,951.5036)">
      <path d="m 0,0 c -0.895,-0.594 -1.967,-0.941 -3.119,-0.951 1.078,0.746 1.887,1.849 2.26,3.14 C -1.629,1.547 -2.568,1.104 -3.6,0.932 -3.908,0.881 -4.225,0.854 -4.547,0.854 c -0.041,0 -0.08,0.001 -0.119,0.001 C -4.971,1.154 -5.307,1.42 -5.672,1.648 -5.676,1.65 -5.682,1.654 -5.686,1.656 -5.748,1.695 -5.812,1.732 -5.875,1.77 -5.891,1.777 -5.904,1.785 -5.918,1.793 -5.977,1.826 -6.039,1.857 -6.1,1.889 -6.119,1.898 -6.137,1.908 -6.156,1.918 -6.215,1.947 -6.275,1.975 -6.334,2.002 l -0.064,0.029 c -0.059,0.026 -0.122,0.051 -0.18,0.074 -0.024,0.01 -0.047,0.02 -0.07,0.028 C -6.707,2.156 -6.77,2.178 -6.83,2.199 -6.854,2.207 -6.877,2.215 -6.902,2.225 -6.963,2.244 -7.025,2.264 -7.086,2.281 -7.111,2.289 -7.137,2.295 -7.162,2.303 -7.225,2.32 -7.287,2.336 -7.35,2.352 -7.375,2.357 -7.4,2.363 -7.424,2.369 -7.488,2.385 -7.555,2.396 -7.619,2.41 c -0.024,0.004 -0.047,0.008 -0.072,0.014 -0.067,0.012 -0.133,0.023 -0.202,0.031 -0.021,0.004 -0.043,0.006 -0.062,0.01 -0.072,0.008 -0.143,0.017 -0.217,0.025 -0.016,0 -0.031,0.002 -0.047,0.002 -0.076,0.006 -0.156,0.014 -0.234,0.018 l -0.049,0 c -0.07,0.002 -0.139,0.006 -0.207,0.006 -0.104,0 -0.207,-0.004 -0.309,-0.008 C -9.045,2.506 -9.07,2.502 -9.098,2.5 -9.172,2.496 -9.248,2.49 -9.324,2.482 -9.35,2.48 -9.375,2.475 -9.402,2.473 -9.477,2.463 -9.555,2.453 -9.629,2.441 L -9.693,2.43 C -9.773,2.416 -9.852,2.4 -9.93,2.385 -9.945,2.381 -9.963,2.377 -9.98,2.373 c -0.083,-0.019 -0.165,-0.039 -0.249,-0.06 -0.011,-0.004 -0.021,-0.008 -0.033,-0.01 -0.088,-0.026 -0.174,-0.051 -0.259,-0.08 -0.006,-0.002 -0.014,-0.006 -0.02,-0.006 -0.09,-0.031 -0.18,-0.065 -0.268,-0.098 -0.002,-0.002 -0.004,-0.002 -0.005,-0.004 -0.448,-0.174 -0.866,-0.404 -1.249,-0.678 -0.005,-0.005 -0.013,-0.009 -0.019,-0.013 -0.211,-0.153 -0.41,-0.32 -0.598,-0.498 -0.004,-0.004 -0.006,-0.006 -0.008,-0.01 -0.783,-0.746 -1.353,-1.713 -1.617,-2.799 -0.006,-0.017 -0.009,-0.037 -0.013,-0.056 -0.02,-0.082 -0.037,-0.163 -0.053,-0.247 -0.004,-0.029 -0.01,-0.058 -0.016,-0.085 -0.011,-0.077 -0.023,-0.151 -0.033,-0.227 l -0.012,-0.1 c -0.007,-0.076 -0.015,-0.152 -0.019,-0.228 -0.004,-0.031 -0.008,-0.063 -0.008,-0.094 -0.006,-0.107 -0.01,-0.215 -0.01,-0.324 0,-0.119 0.006,-0.235 0.012,-0.352 0.002,-0.033 0.006,-0.066 0.008,-0.099 0.006,-0.088 0.015,-0.174 0.025,-0.26 l 0.012,-0.094 c 0.016,-0.111 0.035,-0.224 0.057,-0.334 l 0,-0.002 c 0.011,-0.064 0.029,-0.129 0.042,-0.191 -0.427,0.021 -0.851,0.06 -1.269,0.115 -0.207,0.027 -0.41,0.059 -0.611,0.094 -0.719,0.121 -1.42,0.289 -2.102,0.502 -0.291,0.09 -0.576,0.189 -0.861,0.295 -1.85,0.689 -3.543,1.701 -5.01,2.966 -0.244,0.213 -0.484,0.432 -0.717,0.657 -0.445,0.435 -0.867,0.892 -1.263,1.375 -0.391,-0.657 -0.655,-1.397 -0.758,-2.186 -0.033,-0.248 -0.051,-0.502 -0.051,-0.76 0,-0.691 0.121,-1.355 0.346,-1.97 0.406,-1.117 1.152,-2.074 2.109,-2.746 -0.904,0.074 -1.754,0.357 -2.492,0.802 0,-0.043 -0.002,-0.086 -0.002,-0.129 0,-1.632 0.68,-3.103 1.769,-4.152 0.762,-0.73 1.725,-1.258 2.797,-1.482 -0.435,-0.106 -0.892,-0.164 -1.359,-0.164 -0.414,0 -0.818,0.045 -1.205,0.127 0.678,-2.311 2.765,-4.018 5.269,-4.125 -2.203,-1.467 -4.847,-2.325 -7.691,-2.325 -0.252,0 -0.502,0.008 -0.752,0.022 2.531,-1.58 5.52,-2.494 8.723,-2.494 9.109,0 16.492,7.383 16.492,16.492 0,0.092 0,0.185 -0.004,0.277 0.002,0.049 0.004,0.094 0.004,0.141 0,0.058 -0.002,0.117 -0.004,0.176 C -1.621,-2.461 -0.557,-1.361 0,0 m 8.088,-8.141 c 0,-12.421 -10.068,-22.49 -22.49,-22.49 -12.422,0 -22.491,10.069 -22.491,22.49 0,12.42 10.069,22.491 22.491,22.491 12.422,0 22.49,-10.071 22.49,-22.491" style="fill:#ffffff;fill-opacity:1;fill-rule:nonzero;stroke:none" id="path4021" inkscape:connector-curvature="0"/>
    </g>
    <g id="g4015" transform="matrix(1.3339262,0,0,-1.3339262,24.773677,1013.4955)">
      <path d="m 0,0 c -0.531,-0.68 -1.225,-3.357 -0.232,-5.494 l -2.166,-9.201 c 0,0 -1.065,-7.86 -0.309,-8.075 0.767,-0.214 3.56,6.731 3.56,6.731 l 1.293,4.502 0.95,-1.305 c 2.589,-2.463 6.842,-1.094 9.413,1.787 2.181,2.438 3.387,7.125 3.387,9.225 0,5.435 -4.587,9.894 -10.351,10.264 C -4.542,9.078 -7.635,1.75 -7.739,-2.473 c -0.123,-5.119 2.337,-6.697 3.774,-7.072 0.48,-0.129 1.415,2.541 1.258,2.969 -0.148,0.435 -1.34,1.514 -1.34,3.355 0,5.491 3.875,8.348 8.318,8.379 3.176,0.022 6.957,-1.635 6.957,-6.73 0,-3.25 -1.408,-6.594 -3.052,-7.862 -1.883,-1.447 -4.072,-0.519 -4.762,0.567 -1.188,1.877 2.025,6.56 1.205,8.775 C 3.808,2.123 1.424,1.85 0,0 m 26.408,-6.646 c 0,-12.422 -10.069,-22.491 -22.49,-22.491 -12.421,0 -22.49,10.069 -22.49,22.491 0,12.419 10.069,22.49 22.49,22.49 12.421,0 22.49,-10.071 22.49,-22.49" style="fill:#ffffff;fill-opacity:1;fill-rule:nonzero;stroke:none" id="path4017" inkscape:connector-curvature="0"/>
    </g>
  </g>
</svg>