<?xml version="1.0" encoding="UTF-8" standalone="no"?>
<!-- Generator: Adobe Illustrator 16.0.0, SVG Export Plug-In . SVG Version: 6.00 Build 0)  -->

<svg
   xmlns:dc="http://purl.org/dc/elements/1.1/"
   xmlns:cc="http://creativecommons.org/ns#"
   xmlns:rdf="http://www.w3.org/1999/02/22-rdf-syntax-ns#"
   xmlns:svg="http://www.w3.org/2000/svg"
   xmlns="http://www.w3.org/2000/svg"
   xmlns:sodipodi="http://sodipodi.sourceforge.net/DTD/sodipodi-0.dtd"
   xmlns:inkscape="http://www.inkscape.org/namespaces/inkscape"
   version="1.1"
   id="Layer_1"
   x="0px"
   y="0px"
   width="612px"
   height="792px"
   viewBox="0 0 612 792"
   enable-background="new 0 0 612 792"
   xml:space="preserve"
   inkscape:version="0.48.4 r9939"
   sodipodi:docname="ugoods_SPRITE_headernew.svg"><metadata
   id="metadata4126"><rdf:RDF><cc:Work
       rdf:about=""><dc:format>image/svg+xml</dc:format><dc:type
         rdf:resource="http://purl.org/dc/dcmitype/StillImage" /></cc:Work></rdf:RDF></metadata><defs
   id="defs4124" /><sodipodi:namedview
   pagecolor="#ffffff"
   bordercolor="#666666"
   borderopacity="1"
   objecttolerance="10"
   gridtolerance="10"
   guidetolerance="10"
   inkscape:pageopacity="0"
   inkscape:pageshadow="2"
   inkscape:window-width="1920"
   inkscape:window-height="1018"
   id="namedview4122"
   showgrid="false"
   inkscape:zoom="3.3712566"
   inkscape:cx="158.53262"
   inkscape:cy="786.20587"
   inkscape:window-x="-8"
   inkscape:window-y="-8"
   inkscape:window-maximized="1"
   inkscape:current-layer="Layer_1" />
<g
   id="g4038">
	<path
   fill="#0484A9"
   d="M282.236,28.394h-11.24c-0.678,0-1.229-0.551-1.229-1.229l-0.816-6.059   c-0.004-0.73,0.549-1.281,1.227-1.281h12.879c0.678,0,1.227,0.551,1.227,1.227l-0.82,6.168   C283.466,27.843,282.914,28.394,282.236,28.394z M270.177,20.644c-0.227,0-0.412,0.184-0.412,0.408l0.816,6.059   c0.004,0.281,0.188,0.465,0.414,0.465h11.24c0.227,0,0.412-0.184,0.412-0.41l0.82-6.166c-0.004-0.172-0.188-0.355-0.412-0.355   L270.177,20.644L270.177,20.644z"
   id="path4040" />
	<path
   fill="#0484A9"
   d="M269.355,21.462c-0.201,0-0.377-0.15-0.404-0.355l-0.18-1.363c-0.004-0.279-0.188-0.463-0.414-0.463h-1.559   c-0.227,0-0.41-0.184-0.41-0.41c0-0.225,0.184-0.408,0.41-0.408h1.559c0.678,0,1.229,0.551,1.229,1.227l0.176,1.311   c0.031,0.225-0.127,0.43-0.352,0.459C269.392,21.46,269.375,21.462,269.355,21.462z"
   id="path4042" />
	<g
   id="g4044">
		<g
   id="g4046">
			
				<rect
   x="269.327"
   y="23.922"
   transform="matrix(-0.0881 -0.9961 0.9961 -0.0881 273.1346 298.3419)"
   fill="#0484A9"
   width="7.606"
   height="0.449"
   id="rect4048" />
			<rect
   x="276.408"
   y="20.361"
   fill="#0484A9"
   width="0.449"
   height="7.576"
   id="rect4050" />
			
				<rect
   x="279.91"
   y="20.335"
   transform="matrix(-0.9954 -0.0957 0.0957 -0.9954 556.6713 74.989)"
   fill="#0484A9"
   width="0.449"
   height="7.612"
   id="rect4052" />
		</g>
		<rect
   x="270.046"
   y="25.134"
   fill="#0484A9"
   width="13.189"
   height="0.449"
   id="rect4054" />
		<rect
   x="269.546"
   y="22.685"
   fill="#0484A9"
   width="14.135"
   height="0.449"
   id="rect4056" />
	</g>
	<g
   id="g4058">
		<path
   fill="#0484A9"
   d="M282.566,31.286h-11.838c-0.678,0-1.229-0.551-1.229-1.229l0.469-2.203    c0.047-0.219,0.26-0.363,0.486-0.312c0.221,0.049,0.361,0.266,0.314,0.486l-0.459,2.117c0.008,0.139,0.191,0.322,0.418,0.322    h11.838c0.227,0,0.41,0.182,0.41,0.408S282.792,31.286,282.566,31.286z"
   id="path4060" />
		<g
   id="g4062">
			
				<rect
   x="272.889"
   y="30.642"
   transform="matrix(-0.9863 -0.1648 0.1648 -0.9863 537.7015 107.2045)"
   fill="#0484A9"
   width="0.818"
   height="1.313"
   id="rect4064" />
			<path
   fill="#0484A9"
   d="M273.023,34.276c-0.725,0-1.314-0.59-1.314-1.314s0.59-1.314,1.314-1.314s1.316,0.59,1.316,1.314     S273.748,34.276,273.023,34.276z M273.023,32.349c-0.338,0-0.613,0.275-0.613,0.613s0.275,0.613,0.613,0.613     s0.615-0.275,0.615-0.613S273.361,32.349,273.023,32.349z"
   id="path4066" />
		</g>
		<g
   id="g4068">
			
				<rect
   x="279.946"
   y="30.877"
   transform="matrix(-0.1749 -0.9846 0.9846 -0.1749 298.8673 313.0381)"
   fill="#0484A9"
   width="1.315"
   height="0.819"
   id="rect4070" />
			<path
   fill="#0484A9"
   d="M280.869,34.276c-0.727,0-1.316-0.59-1.316-1.314s0.59-1.314,1.316-1.314c0.725,0,1.314,0.59,1.314,1.314     S281.593,34.276,280.869,34.276z M280.869,32.349c-0.34,0-0.615,0.275-0.615,0.613s0.275,0.613,0.615,0.613     c0.338,0,0.613-0.275,0.613-0.613S281.207,32.349,280.869,32.349z"
   id="path4072" />
		</g>
	</g>
</g>

<g
   id="g4165"
   transform="matrix(0.20560656,0,0,0.20560656,12.72199,11.193539)"><path
     id="path4129"
     d="m 48.012,73.851 c 0.094,-7.678 0.28,-34.756 -0.083,-37.473 -1.408,-1.11 -8.172,-0.957 -9.652,0 -0.459,3.505 -0.535,21.619 -0.559,30.827 -2.204,3.551 -8.377,6.015 -13.419,6.015 -2.729,0 -5.525,-1.708 -5.472,-5.712 0.034,-2.587 0.465,-25.302 0.252,-27.383 -0.3,-2.971 -2.25,-4.522 -7.94,-4.522 -4.993,0 -8.244,1.707 -8.244,4.522 v 3.763 H 9.308 C 8.909,51.224 8.439,66.826 9.18,71.36 c 1.154,7.09 5.712,11.697 12.751,11.697 6.234,0 13.96,-3.181 16.394,-7.326 0.146,-0.042 0.286,0.005 0.286,0.005 -0.206,0.547 -0.281,1.301 -0.281,2.183 0.005,2.983 1.95,4.524 7.645,4.524 4.991,0 8.244,-2.316 8.244,-5.127 v -3.464 h -6.207 z"
     inkscape:connector-curvature="0"
     style="fill:#387d9b" /><path
     id="path4131"
     d="m 61.348,43.812 c -0.089,7.681 -0.278,34.759 0.084,37.476 1.413,1.11 8.177,0.958 9.652,0 0.459,-3.5 0.532,-21.615 0.559,-30.829 2.201,-3.546 8.375,-6.916 13.418,-6.916 2.727,0 5.472,1.649 5.472,6.62 0,2.585 -0.459,25.299 -0.251,27.379 0.3,2.976 2.25,4.524 7.944,4.524 4.991,0 8.247,-1.708 8.247,-4.524 l -0.007,-3.763 h -6.416 c 0.407,-7.337 0.869,-22.938 0.133,-27.472 C 99.024,39.219 94.472,34.61 87.43,34.61 c -6.234,0 -13.956,3.182 -16.392,7.326 -0.147,0.043 -0.286,-10e-4 -0.286,-10e-4 0.206,-0.549 0.278,-1.31 0.278,-2.186 0,-2.988 -1.95,-4.521 -7.645,-4.521 -4.988,0 -8.244,2.31 -8.244,5.124 l 0.005,3.46 h 6.202 z"
     inkscape:connector-curvature="0"
     style="fill:#387d9b" /><path
     id="path4133"
     d="M 7.228,13.508 C 5.116,11.391 3.621,12.099 2.407,13.311 c -1.214,1.212 -1.732,2.899 0.196,4.828 1.57,1.57 8.039,6.276 10.951,7.697 0.822,0.399 1.785,-0.514 1.41,-1.298 -1.372,-2.891 -6.161,-9.46 -7.736,-11.03 z"
     inkscape:connector-curvature="0"
     style="fill:#85b77e" /><path
     id="path4135"
     d="m 51.665,13.311 c -1.21,-1.212 -2.705,-1.919 -4.824,0.197 -1.57,1.57 -6.357,8.139 -7.734,11.03 -0.373,0.784 0.583,1.697 1.41,1.298 2.913,-1.421 9.381,-6.127 10.951,-7.697 1.931,-1.929 1.411,-3.617 0.197,-4.828 z"
     inkscape:connector-curvature="0"
     style="fill:#85b77e" /><path
     id="path4137"
     d="m 27.033,2.667 c -1.708,0 -3.271,0.822 -3.271,3.551 0,2.223 1.244,16.152 2.303,19.217 0.297,0.866 1.623,0.9 1.914,0.081 1.071,-3.016 2.33,-17.079 2.33,-19.298 0,-2.995 -1.559,-3.551 -3.276,-3.551 z"
     inkscape:connector-curvature="0"
     style="fill:#85b77e" /><path
     id="path4139"
     d="m 194.063,58.467 c 0,-20.653 -10.692,-23.857 -21.995,-23.857 -11.297,0 -21.995,4.856 -21.995,23.857 0,19.005 10.697,23.861 21.995,23.861 11.303,0 21.995,-3.196 21.995,-23.861 z m -21.995,15.752 c -6.033,0 -11.704,-1.868 -11.704,-15.752 0,-13.25 5.67,-16.046 11.704,-16.046 6.031,0 11.704,2.097 11.704,16.046 0,14.201 -5.673,15.752 -11.704,15.752 z"
     inkscape:connector-curvature="0"
     style="fill:#387d9b" /><path
     id="path4141"
     d="m 384.171,58.467 c 0,-20.653 -12.207,-24.758 -23.507,-24.758 -11.297,0 -23.501,5.758 -23.501,24.758 0,19.005 12.205,24.768 23.501,24.768 11.3,0 23.507,-4.103 23.507,-24.768 z m -23.506,16.659 c -6.035,0 -13.211,-2.775 -13.211,-16.66 0,-13.25 7.176,-16.951 13.211,-16.951 6.036,0 13.206,3.002 13.206,16.951 0,14.202 -7.17,16.66 -13.206,16.66 z"
     inkscape:connector-curvature="0"
     style="fill:#387d9b" /><path
     id="path4143"
     d="m 391.649,43.812 c -0.087,7.681 -0.28,34.759 0.087,37.476 1.403,1.11 8.17,0.958 9.65,0 0.459,-3.5 0.527,-21.615 0.554,-30.829 2.209,-3.546 8.38,-6.916 13.424,-6.916 2.724,0 5.47,1.649 5.47,6.62 0,2.585 -0.462,25.299 -0.249,27.379 0.3,2.976 2.244,4.524 7.939,4.524 4.995,0 8.249,-1.708 8.244,-4.524 v -3.763 h -6.416 c 0.402,-7.337 0.871,-22.938 0.136,-27.472 -1.161,-7.088 -5.719,-11.697 -12.754,-11.697 -6.236,0 -13.958,3.182 -16.396,7.326 -0.146,0.043 -0.283,-10e-4 -0.283,-10e-4 0.206,-0.549 0.276,-1.31 0.276,-2.186 0,-2.988 -1.947,-4.521 -7.647,-4.521 -4.983,0 -8.241,2.31 -8.241,5.124 v 3.46 h 6.206 z"
     inkscape:connector-curvature="0"
     style="fill:#387d9b" /><path
     id="path4145"
     d="m 334.454,73.779 h -6.413 c 0.394,-7.337 0.863,-22.938 0.128,-27.472 -1.156,-7.088 -5.711,-11.697 -12.751,-11.697 -6.232,0 -13.961,3.182 -16.395,7.326 -0.097,0.029 -0.44,0.017 -0.677,0.011 l 0.01,0.036 c -2.04,-4.578 -6.012,-7.373 -11.491,-7.373 -6.232,0 -13.963,3.182 -16.397,7.326 -0.097,0.029 -0.44,0.017 -0.672,0.011 l 0.015,0.091 c -2.032,-4.612 -6.009,-7.428 -11.515,-7.428 -6.232,0 -13.963,3.182 -16.397,7.326 -0.092,0.029 -0.44,0.017 -0.672,0.011 -2.046,-4.559 -6.009,-7.337 -11.474,-7.337 -6.234,0 -13.661,3.182 -16.095,7.326 -0.145,0.043 -0.28,-10e-4 -0.28,-10e-4 0.206,-0.549 0.271,-1.31 0.271,-2.186 0,-2.988 -1.947,-4.521 -7.639,-4.521 -4.993,0 -8.245,2.31 -8.245,5.124 v 3.46 h 6.208 c -0.092,7.681 -0.281,34.759 0.087,37.476 1.408,1.11 8.172,0.958 9.652,0 0.455,-3.5 0.53,-21.615 0.557,-30.829 2.201,-3.546 8.07,-6.916 13.111,-6.916 2.731,0 5.475,1.649 5.475,6.62 0,2.585 -0.464,25.299 -0.254,27.379 0.3,2.976 2.25,4.524 7.949,4.524 4.988,0 8.244,-1.708 8.239,-4.524 v -3.763 h -6.416 c 0.327,-5.922 0.692,-17.235 0.431,-23.759 2.424,-3.384 8.293,-6.477 13.126,-6.477 2.722,0 5.467,1.649 5.467,6.62 0,2.585 -0.459,25.299 -0.251,27.379 0.305,2.976 2.248,4.524 7.944,4.524 4.993,0 8.245,-1.708 8.245,-4.524 v -3.763 h -6.416 c 0.324,-5.968 0.692,-17.415 0.426,-23.914 l 0.026,0.155 c 2.421,-3.384 8.291,-6.477 13.121,-6.477 2.731,0 5.47,1.649 5.47,6.62 0,2.585 -0.459,25.299 -0.247,27.379 0.305,2.976 2.25,4.524 7.944,4.524 4.986,0 8.244,-1.708 8.244,-4.524 l -0.002,-3.763 h -6.415 c 0.326,-5.946 0.691,-17.312 0.423,-23.827 l 0.024,0.068 c 2.414,-3.384 8.283,-6.477 13.116,-6.477 2.727,0 5.467,1.649 5.467,6.62 0,2.585 -0.459,25.299 -0.247,27.379 0.3,2.976 2.25,4.524 7.944,4.524 4.988,0 8.244,-1.708 8.24,-4.524 v -3.763 z"
     inkscape:connector-curvature="0"
     style="fill:#387d9b" /><path
     id="path4147"
     d="m 143.576,71.764 c -2.368,1.207 -9.592,2.155 -12.889,2.155 -6.033,0 -11.699,-1.87 -11.699,-15.753 0,-13.25 5.666,-16.046 11.699,-16.046 2.197,0 4.17,0.264 5.796,0.742 0,7.461 1.679,8.54 4.504,8.543 h 1.205 c 2.985,-0.003 4.526,-1.156 4.526,-9.453 h -0.002 c 0,-4.121 -4.403,-7.642 -15.062,-7.642 -11.297,0 -22.962,4.855 -22.962,23.856 0,19.01 10.697,23.861 21.995,23.861 5.746,0 12.381,-1.669 15.047,-3.427 2.359,-1.563 0,-6.787 -2.158,-6.836 z"
     inkscape:connector-curvature="0"
     style="fill:#387d9b" /><path
     id="path4149"
     d="m 538.354,58.467 c 0,-20.653 -12.202,-24.758 -23.504,-24.758 -11.3,0 -23.502,5.758 -23.502,24.758 0,19.005 12.202,24.768 23.502,24.768 11.302,0 23.504,-4.103 23.504,-24.768 z M 514.85,75.126 c -6.036,0 -13.211,-2.775 -13.211,-16.66 0,-13.25 7.175,-16.951 13.211,-16.951 6.035,0 13.21,3.002 13.21,16.951 0,14.202 -7.175,16.66 -13.21,16.66 z"
     inkscape:connector-curvature="0"
     style="fill:#85b77e" /><path
     id="path4151"
     d="m 589.169,58.467 c 0,-20.653 -12.204,-24.758 -23.502,-24.758 -11.294,0 -23.504,5.758 -23.504,24.758 0,19.005 12.21,24.768 23.504,24.768 11.298,0 23.502,-4.103 23.502,-24.768 z m -23.502,16.659 c -6.03,0 -13.21,-2.775 -13.21,-16.66 0,-13.25 7.18,-16.951 13.21,-16.951 6.036,0 13.214,3.002 13.214,16.951 0,14.202 -7.177,16.66 -13.214,16.66 z"
     inkscape:connector-curvature="0"
     style="fill:#85b77e" /><path
     id="path4153"
     d="m 682.172,68.526 c 0,-15.334 -24.6,-14 -24.6,-21.884 0,-3.896 1.63,-5.73 7.666,-5.73 2.189,0 3.863,0.264 5.489,0.742 0,7.462 1.684,8.541 4.509,8.541 h 1.2 c 2.989,0 4.525,-1.154 4.525,-9.45 l 0,0 c 0,-4.117 -4.1,-7.645 -14.759,-7.645 -11.302,0 -18.525,3.884 -18.525,14.5 0,14.374 24.438,12.803 24.438,21.049 0,3.797 -1.476,5.57 -7.509,5.57 -3.58,0 -5.568,-0.454 -6.996,-1.399 0,-7.462 -1.688,-8.188 -4.507,-8.188 h -1.207 c -2.985,0 -4.523,1.158 -4.523,9.454 l 0,0 c 0,4.12 5.607,7.941 16.269,7.941 11.297,0 18.53,-2.631 18.53,-13.501 z"
     inkscape:connector-curvature="0"
     style="fill:#85b77e" /><path
     id="path4155"
     d="m 490.138,40.18 c 0,-2.816 -3.256,-5.127 -8.249,-5.127 -4.831,0 -6.957,1.11 -7.489,3.271 -3.072,-2.372 -7.258,-4.013 -12.004,-4.013 -11.302,0 -21.53,4.855 -21.53,23.856 0,19.01 10.697,23.861 21.995,23.861 3.703,0 7.717,-1.059 10.852,-2.699 0.005,1.566 0.008,2.509 0.008,2.509 0,13.882 -5.971,15.749 -12.007,15.749 -3.295,0 -10.511,-0.951 -12.879,-2.158 -2.155,0.051 -4.519,5.281 -2.155,6.839 2.658,1.761 9.299,3.429 15.034,3.429 11.303,0 22.302,-4.857 22.302,-23.858 0,0 0.008,-30.516 -0.079,-38.197 h 6.197 l 0.004,-3.462 z m -27.277,33.739 c -6.034,0 -11.704,-1.87 -11.704,-15.753 0,-13.25 5.67,-16.046 11.704,-16.046 4.673,0 9.168,2.668 10.883,6.673 l -0.108,1.494 c 0.015,4.92 0.039,13.579 0.058,20.583 -3.441,2.067 -8.124,3.049 -10.833,3.049 z"
     inkscape:connector-curvature="0"
     style="fill:#85b77e" /><path
     id="path4157"
     d="m 643.791,73.609 h -6.418 c 0.276,-5.015 0.583,-13.893 0.513,-20.458 0.255,-6.763 0.306,-19.706 0.324,-27.026 0,-3.554 0,-8.76 -0.614,-10.713 -0.895,-2.846 -1.949,-4.522 -7.642,-4.522 -4.991,0 -8.244,2.315 -8.244,5.125 v 3.461 h 6.202 c -0.041,3.513 -0.102,11.087 -0.123,18.531 -3.026,-2.203 -7.057,-3.697 -11.603,-3.697 -11.292,0 -21.525,4.855 -21.525,23.856 0,19.01 10.695,23.861 21.995,23.861 3.413,0 7.663,-1.476 11.019,-4.161 0.467,2.651 2.504,4.028 7.877,4.028 4.993,0 8.244,-1.704 8.244,-4.52 l -0.005,-3.765 z m -27.135,0.31 c -6.031,0 -11.704,-1.87 -11.704,-15.753 0,-13.25 5.673,-16.046 11.704,-16.046 4.935,0 9.679,2.979 11.145,7.364 0.015,0.979 0.021,1.897 0.031,2.731 -0.053,3.672 -0.174,10.769 -0.241,16.514 -3.114,3.453 -6.52,5.19 -10.935,5.19 z"
     inkscape:connector-curvature="0"
     style="fill:#85b77e" /></g></svg>