<?xml version="1.0" standalone="no"?>
<!DOCTYPE svg PUBLIC "-//W3C//DTD SVG 1.1//EN" "http://www.w3.org/Graphics/SVG/1.1/DTD/svg11.dtd" >
<svg xmlns="http://www.w3.org/2000/svg">
<metadata>Generated by IcoMoon</metadata>
<defs>
<font id="UncommonGoods" horiz-adv-x="1024">
<font-face units-per-em="1024" ascent="960" descent="-64" />
<missing-glyph horiz-adv-x="1024" />
<glyph unicode="&#x20;" d="" horiz-adv-x="512" />
<glyph unicode="&#x31;" d="M668.488 285.542c-19.876 35.656-43.909 61.594-81.756 47.288l-22.764-8.745c-16.486-6.195-58.563-48.558-110.715 88.443-52.152 136.94 7.547 133.345 24.033 139.54l22.835 8.673c37.775 14.449 38.472 49.695 29.665 89.651l-5.212 24.166c-8.888 39.752-23.757 69.212-61.532 54.825 0 0-83.016-29.317-112.476-83.231-35.523-64.635-31.713-154.972 11.489-268.37 43.059-113.541 100.291-183.439 169.789-208.179 57.713-20.511 139.387 12.605 139.387 12.605 37.714 14.377 29.245 46.162 9.175 81.889l-11.919 21.443z" />
<glyph unicode="&#x32;" d="M511.959 754.043c-168.223 0-306.002-137.779-306.002-306.002 0-168.305 137.779-306.084 306.002-306.084 168.305 0 306.084 137.779 306.084 306.084 0 168.223-137.779 306.002-306.084 306.002v0zM511.959 203.203c-134.605 0-244.695 110.162-244.695 244.838 0 134.605 110.090 244.746 244.695 244.746 134.676 0 244.756-110.152 244.756-244.746 0-134.676-110.080-244.838-244.756-244.838v0zM634.378 336.466l-156.027 93.522v181.903h60.611v-147.569l126.566-75.909z" />
<glyph unicode="&#x33;" d="M512.031 734.484c-98.867 0-179.149-80.056-179.149-178.995 0-27.699 6.349-53.975 17.623-77.384 0.635-1.341 161.526-316.58 161.526-316.58l159.621 312.627c12.401 24.392 19.456 52.009 19.456 81.326 0.010 98.939-80.189 179.005-179.077 179.005v0zM512.031 448.082c-59.341 0-107.469 48.056-107.469 107.397s48.128 107.397 107.469 107.397c59.341 0 107.407-48.056 107.407-107.397s-48.056-107.397-107.407-107.397v0z" />
<glyph unicode="&#x34;" d="M481.249 411.372v155.976h-231.086c-10.916 0-19.763-8.858-19.763-19.784v-136.202h250.849zM542.761 411.372h250.839v136.202c0 10.916-8.868 19.784-19.784 19.784h-231.055v-155.986zM542.761 349.87v-180.582h194.161c10.906 0 19.784 8.858 19.784 19.784v160.799h-213.944zM481.249 349.87h-213.944v-160.799c0-10.916 8.847-19.784 19.773-19.784h194.181v180.582zM723.282 673.659c-16.435 32.717-49.377 53.053-85.996 53.053-15.063 0-29.563-3.451-43.1-10.25-13.322-6.687-25.027-16.486-33.905-28.385l-48.282-58.593-48.282 58.593c-8.878 11.899-20.582 21.699-33.905 28.385-13.343 6.697-28.252 10.25-43.1 10.25-36.618 0-69.56-20.326-85.996-53.043-11.796-23.48-13.476-47.237-4.864-68.71 7.977-19.855 24.433-36.495 47.616-48.148 12.974-6.502 26.89-9.933 41.37-10.209h0.451c0.471 0 89.948 0.584 126.7 0.819 36.751-0.236 126.218-0.819 126.7-0.819h0.44c14.469 0.276 28.396 3.707 41.39 10.22 23.163 11.643 39.619 28.283 47.596 48.138 8.643 21.473 6.953 45.23-4.833 68.7zM365.548 600.791c-12.278 6.185-20.593 13.947-24.023 22.497-3.256 8.11-2.191 17.623 3.174 28.293 8.018 15.995 24.125 25.917 42.025 25.917 7.322 0 14.387-1.679 21.012-5.007 6.717-3.369 12.36-8.131 16.773-14.121l51.005-61.993c-38.738-0.246-85.77-0.553-90.010-0.573-6.984 0.164-13.701 1.843-19.958 4.987zM682.476 623.288c-3.441-8.55-11.745-16.323-24.023-22.487-6.267-3.154-12.984-4.833-19.958-4.987-4.239 0.020-51.282 0.317-90.010 0.573l50.166 60.908 0.84 1.075c4.403 5.99 10.035 10.752 16.773 14.121 6.615 3.328 13.691 5.007 21.012 5.007 17.9 0 33.997-9.933 42.025-25.928 5.356-10.66 6.431-20.173 3.174-28.283z" />
<glyph unicode="&#x35;" d="M512 748.483c-169.032 0-306.043-105.697-306.043-236.012 0-130.396 137.001-236.012 306.043-236.012 19.62 0 38.646 1.567 57.262 4.198l144.241-133.14c0 0 18.995 169.175 24.115 205.015 42.117 40.376 80.425 104.069 80.425 159.939 0 130.304-137.001 236.012-306.043 236.012v0z" />
<glyph unicode="&#x36;" d="M729.958 504.463h-58.86v69.591c0 87.716-71.383 159.089-159.099 159.089-87.726 0-159.099-71.373-159.099-159.089v-69.591h-58.87c-9.093 0-16.456-7.373-16.456-16.456v-308.685c0-9.093 7.363-16.456 16.456-16.456h435.917c9.083 0 16.456 7.373 16.456 16.456v308.675c0.020 9.093-7.363 16.466-16.445 16.466v0zM595.139 504.463h-166.277v69.591c0 45.855 37.294 83.139 83.139 83.139 45.834 0 83.139-37.294 83.139-83.139v-69.591z" />
<glyph unicode="&#x41;" d="M512 882.862c-240.159 0-434.862-194.693-434.862-434.862s194.703-434.862 434.862-434.862c240.169 0 434.852 194.693 434.852 434.862s-194.683 434.862-434.852 434.862zM511.99 751.36v0c82.616 0 157.471-33.065 212.183-86.62h-212.183v86.62zM319.498 636.703l35.666 69.673 33.608-70.707 77.292-12.39-56.852-53.811 12.083-77.343-68.731 37.448-69.827-35.4 14.367 76.954-55.235 55.46 77.629 10.117zM512 144.64c-82.606 0-157.471 33.065-212.173 86.63h424.346c-54.702-53.565-129.567-86.63-212.173-86.63zM786.248 318.249h-548.485c-12.718 26.829-21.586 55.808-25.969 86.262h600.422c-4.383-30.454-13.261-59.433-25.969-86.262zM511.99 491.489v86.272h274.248c12.708-26.829 21.586-55.808 25.969-86.272h-300.216z" />
<glyph unicode="&#x43;" d="M512 882.862c-240.159 0-434.862-194.693-434.862-434.862s194.703-434.862 434.862-434.862c240.179 0 434.862 194.693 434.862 434.862s-194.683 434.862-434.862 434.862zM510.904 147.538c-138.68 0-255.396 93.716-290.478 221.235 32.266 23.839 60.846 39.567 101.161 44.483v20.040c-44.749 12.022-68.895 52.746-68.895 101.284 0 57.989 47.002 104.97 104.98 104.97 57.969 0 104.98-46.991 104.98-104.97 0-48.538-24.136-89.252-68.884-101.274v-20.050c47.145-5.755 81.521-26.225 117.125-57.252 35.615 31.027 69.99 51.507 117.125 57.252v20.040c-44.749 12.022-68.884 52.746-68.884 101.284 0 57.989 47.002 104.97 104.97 104.97 57.989 0 104.98-46.991 104.98-104.97 0-48.538-24.136-89.252-68.874-101.274v-20.050c40.305-4.915 68.874-20.644 101.13-44.472-35.062-127.519-151.777-221.245-290.437-221.245z" />
<glyph unicode="&#x45;" d="M512 882.862c-240.159 0-434.862-194.693-434.862-434.862s194.703-434.862 434.862-434.862c240.179 0 434.862 194.693 434.862 434.862s-194.683 434.862-434.862 434.862zM316.416 643.584h391.168c11.305 0 21.78-3.123 31.068-8.212l-226.652-198.318-226.642 198.318c9.257 5.089 19.743 8.212 31.058 8.212zM251.218 317.614v260.772c0 12.759 3.82 24.566 10.158 34.632l162.867-142.479-164.639-184.279c-5.181 9.318-8.387 19.917-8.387 31.355zM707.584 252.416h-391.168c-12.667 0-24.381 3.758-34.376 10.025l166.758 186.604 52.47-45.926c3.072-2.683 6.892-4.024 10.732-4.024s7.66 1.341 10.732 4.014l52.46 45.937 166.769-186.593c-10.004-6.267-21.709-10.035-34.376-10.035zM772.782 317.614c0-11.428-3.215-22.026-8.376-31.355l-164.68 184.238 162.888 142.52c6.339-10.056 10.158-21.873 10.158-34.632v-260.772z" />
<glyph unicode="&#x46;" d="M512 882.862c-240.159 0-434.862-194.693-434.862-434.862s194.703-434.862 434.862-434.862c240.169 0 434.862 194.693 434.862 434.862s-194.693 434.862-434.862 434.862zM620.8 436.531h-76.36v-240.2h-91.412v240.2h-64.891v91.771h64.891v79.954c0 49.234 30.474 79.708 91.412 91.423h87.839v-87.48h-49.838c-25.334 0-38.001-10.281-38.001-30.833v-53.064h91.423c-10.045-58.552-15.063-89.139-15.063-91.771z" />
<glyph unicode="&#x47;" d="M410.143 708.362c-20.695 0-42.209-10.148-54.743-25.836-11.551-14.316-17.142-33.27-17.142-57.958 0-48.62 28.621-139.346 97.669-139.346 18.637 0 39.997 8.796 53.125 21.914 19.497 19.63 19.497 47.882 19.497 57.17-0.010 58.849-35.031 144.056-98.406 144.056zM448.42 359.168c-0.451 0-46.469-0.625-82.115-12.595-44.544-16.138-67.113-43.274-67.113-80.589 0-57.201 55.255-95.59 137.462-95.59 70.892 0 114.903 32.399 114.903 84.562 0 40.97-27.679 62.464-85.228 103.444-6.185 0.768-10.127 0.768-17.91 0.768zM512 882.862c-240.159 0-434.862-194.693-434.862-434.862s194.703-434.862 434.862-434.862c240.169 0 434.862 194.693 434.862 434.862s-194.693 434.862-434.862 434.862zM611.963 732.211l-40.919-25.743c-0.492-0.297-1.065-0.471-1.628-0.471h-47.555c18.022-14.868 55.439-45.814 55.439-105.687 0-59.556-34.959-87.112-65.782-111.391l-1.044-1.034c-9.687-9.646-20.685-20.593-20.685-37.151 0-16.855 10.988-25.948 19.825-33.27l28.559-22.19c33.843-28.518 65.72-55.378 65.72-109.752 0-73.554-70.615-147.958-205.527-147.958-116.050 0-167.977 56.259-167.977 111.995 0 13.988 4.342 62.29 60.191 95.488 47.288 29.061 112.015 33.516 146.801 35.881l2.417 0.184-1.362 1.772c-10.875 13.855-22.077 28.211-22.077 51.456 0 11.93 3.215 19.579 6.605 27.709l1.147 2.806c-7.895-0.727-16.865-1.587-24.975-1.587-84.234 0-129.669 63.375-129.669 122.982 0 38.687 18.668 77.875 49.92 104.847 39.741 32.85 83.907 46.838 147.702 46.838h143.206c1.362 0 2.57-0.922 2.97-2.243 0.43-1.331-0.154-2.755-1.3-3.482zM814.080 623.688c0-1.71-1.382-3.103-3.082-3.103h-75.438v-75.684c0-1.7-1.413-3.072-3.133-3.072h-32.461c-1.69 0-3.092 1.372-3.092 3.072v75.684h-75.028c-1.731 0-3.133 1.393-3.133 3.103v32.86c0 1.7 1.403 3.092 3.133 3.092h75.028v75.213c0 1.71 1.403 3.082 3.092 3.082h32.461c1.72 0 3.133-1.382 3.133-3.082v-75.213h75.438c1.72 0 3.082-1.362 3.082-3.092v-32.86z" />
<glyph unicode="&#x48;" d="M512 882.862c-240.169 0-434.862-194.693-434.862-434.862s194.693-434.862 434.862-434.862c240.169 0 434.862 194.693 434.862 434.862s-194.693 434.862-434.862 434.862zM796.662 415.488c-2.079-20.992-27.679-51.712-72.724-111.237-76.001-100.454-132.454-160.922-214.518-160.922-65.997 0-141.507 31.314-164.884 118.804-50.862 190.403-77.292 299.428-76.319 317.88 0.707 13.322 5.827 20.142 15.124 23.040 11.612 3.625 20.572-0.338 26.542-9.718 8.96-14.080 54.211-111.933 59.73-122.030 1.382-2.529 8.038-13.261 17.039-10.097 6.851 2.417 6.851 4.977 6.851 16.067 0 19.784-10.332 81.828-14.51 200.53-0.481 13.588 7.772 30.362 23.132 32.522 16.077 0 28.242-9.882 30.597-30.597 9.288-81.777 15.882-140.145 24.003-165.755 3.092-9.738 6.717-16.108 15.278-13.66 5.97 1.71 9.708 6.861 10.527 20.337 1.423 23.183 5.755 146.77 10.803 195.564 2.56 24.75 8.53 38.4 31.539 36.239 17.336-1.628 23.071-16.62 23.071-37.1 0-17.756-3.41-102.4-6.83-203.090-0.42-12.8-0.84-22.19 10.24-23.89 11.1-1.71 14.889 11.223 17.92 21.33 5.12 17.070 46.52 156.703 51.2 169.81 4.27 11.95 14.51 23.89 30.72 19.292 9.912-2.816 19.497-19.098 17.070-33.802-17.070-103.25-34.14-187.73-43.52-250.030-5.315-35.236 26.45-57.17 49.49-45.568 26.429 13.312 68.27 55.808 84.48 66.908 15.473 10.578 39.803-2.007 37.949-20.828z" />
<glyph unicode="&#x49;" d="M626.995 544.184h56.904c12.442 0 22.641 10.179 22.641 22.661v54.241c0 12.483-10.199 22.671-22.641 22.671h-56.904c-12.483 0-22.661-10.189-22.661-22.671v-54.241c0.010-12.483 10.189-22.661 22.661-22.661zM613.56 449.075c0-54.1-45.255-97.956-101.079-97.956s-101.079 43.856-101.079 97.956c0 54.1 45.255 97.956 101.079 97.956s101.079-43.856 101.079-97.956zM512 882.862c-240.159 0-434.862-194.693-434.862-434.862s194.703-434.862 434.862-434.862 434.862 194.693 434.862 434.862-194.703 434.862-434.862 434.862zM763.658 260.936c0-38.318-29.061-64.614-64.604-64.614h-374.129c-35.533 0-64.614 26.286-64.614 64.614v374.129c0 38.318 29.082 64.614 64.614 64.614h374.129c35.543 0 64.604-26.286 64.604-64.614v-374.129zM668.938 443.638c0-83.743-70.062-151.613-156.457-151.613-86.405 0-156.457 67.871-156.457 151.613 0 14.981 2.273 29.501 6.461 43.172h-46.213v-212.634c0-10.998 8.991-20.009 20.009-20.009h350.505c11.018 0 19.999 9.011 19.999 20.009v212.634h-44.298c4.178-13.67 6.451-28.191 6.451-43.172z" />
<glyph unicode="&#x4c;" d="M512 882.862c-240.159 0-434.862-194.693-434.862-434.862s194.703-434.862 434.862-434.862c240.179 0 434.862 194.693 434.862 434.862s-194.683 434.862-434.862 434.862zM522.578 274.985l-75.663-73.82c-32.051-31.242-83.804-31.078-115.661 0.246l-71.956 71.209c-31.857 31.498-31.662 82.268 0.328 113.603l75.653 73.861c31.969 31.242 83.794 31.058 115.64-0.358l-44.995-44.524c-14.326 4.669-30.659-0.942-41.974-12.032l-46.674-45.548c-16.015-15.483-16.077-41.073-0.256-56.74l43.336-42.66c15.923-15.729 41.861-15.831 57.754-0.246l46.674 45.548c10.813 10.578 16.794 27.945 13.036 41.318l45.117 43.684c31.744-31.508 31.621-82.207-0.358-113.541zM558.172 532.48c10.68 10.588 28.027 10.588 38.605-0.102 10.752-10.732 10.691-28.109-0.061-38.779l-129.341-128.584c-10.803-10.701-28.16-10.527-38.748 0.143-10.557 10.752-10.557 28.099 0.184 38.697l129.362 128.625zM764.744 513.495l-78.387-76.452c-31.406-30.638-82.186-30.546-113.48 0.348l43.981 43.1c13.476-3.645 30.781 2.038 41.329 12.339l49.9 48.66c15.708 15.452 15.77 40.243 0.195 55.726l-42.506 42.025c-15.575 15.38-40.96 15.473-56.709 0.154l-49.93-48.691c-11.11-10.906-16.722-26.583-12.186-40.284l-44.82-43.1c-31.232 30.802-31.099 80.773 0.287 111.411l78.541 76.544c31.355 30.648 82.135 30.484 113.49-0.338l70.687-70.031c31.252-30.792 31.13-80.681-0.389-111.411z" />
<glyph unicode="&#x50;" d="M512 882.862c-240.159 0-434.862-194.693-434.862-434.862s194.703-434.862 434.862-434.862c240.179 0 434.862 194.693 434.862 434.862s-194.683 434.862-434.862 434.862zM544.696 334.602c-30.638 2.376-43.5 17.572-67.523 32.164-13.22-69.294-29.358-135.731-77.179-170.435-14.756 104.735 21.668 183.388 38.584 266.895-28.846 48.558 3.471 146.289 64.317 122.204 74.865-29.624-64.829-180.531 28.938-199.383 97.915-19.681 137.892 169.892 77.179 231.537-87.726 89.006-255.365 2.017-234.752-125.42 5.018-31.15 37.212-40.612 12.872-83.599-56.146 12.442-72.909 56.719-70.748 115.763 3.471 96.635 86.825 164.28 170.435 173.65 105.728 11.827 204.974-38.82 218.665-138.281 15.421-112.251-47.729-233.83-160.788-225.096z" />
<glyph unicode="&#x52;" d="M512 882.862c-240.159 0-434.862-194.703-434.862-434.862 0-240.179 194.703-434.862 434.862-434.862 240.179 0 434.862 194.683 434.862 434.862 0 240.159-194.683 434.862-434.862 434.862zM446.3 205.076c-0.031 0-0.061 0-0.092 0l-163.082 0.512c-38.103 0.123-68.649 15.309-83.784 41.667-15.145 26.368-12.872 60.396 6.236 93.379l57.211 98.744-36.198-11.991c-16.087-5.345-33.485 3.389-38.82 19.497s3.4 33.495 19.497 38.82l57.539 19.067c21.821 7.24 45.466 5.038 64.87-6.011s33.341-30.269 38.257-52.726l14.182-64.778c3.625-16.568-6.861-32.942-23.439-36.577-2.212-0.481-4.424-0.707-6.605-0.707-14.121 0-26.839 9.789-29.983 24.146l-8.12 37.079-55.255-95.355c-7.69-13.292-9.984-25.242-6.113-31.98 3.86-6.738 15.34-10.783 30.7-10.834l163.082-0.512c16.968-0.051 30.679-13.844 30.628-30.812-0.041-16.927-13.783-30.628-30.71-30.628zM517.775 604.221c5.171 16.159 22.456 25.098 38.615 19.896l36.147-11.581-54.825 95.631c-7.639 13.332-16.835 21.289-24.596 21.33-0.010 0-0.020 0-0.041 0-7.762 0-16.998-7.895-24.719-21.135l-82.207-140.841c-5.714-9.779-15.995-15.237-26.563-15.237-5.263 0-10.588 1.352-15.452 4.198-14.653 8.54-19.599 27.361-11.049 42.015l82.207 140.851c19.149 32.799 47.483 51.599 77.783 51.599 0.102 0 0.184 0 0.276 0 30.403-0.123 58.716-19.149 77.66-52.214l56.76-99 7.772 37.315c3.461 16.609 19.692 27.279 36.342 23.818 16.609-3.461 27.269-19.743 23.808-36.342l-12.36-59.361c-4.69-22.497-18.442-41.871-37.734-53.115-12.032-7.014-25.754-10.598-39.69-10.598-8.397 0-16.876 1.3-25.119 3.932l-63.14 20.224c-16.138 5.171-25.037 22.467-19.876 38.615zM743.854 204.544h-114.125l28.518-25.303c12.687-11.264 13.855-30.679 2.591-43.377-6.072-6.84-14.51-10.322-22.989-10.322-7.25 0-14.531 2.54-20.378 7.741l-45.343 40.233c-17.203 15.268-27.156 36.823-27.331 59.136-0.174 22.333 9.472 44.032 26.45 59.546l48.937 44.739c12.524 11.438 31.959 10.568 43.397-1.956 11.448-12.524 10.578-31.949-1.935-43.397l-28.017-25.6h110.223c15.36 0 26.839 4.014 30.73 10.732 3.891 6.728 1.638 18.688-6.011 31.99l-81.316 141.373c-8.458 14.715-3.4 33.495 11.315 41.953 14.705 8.448 33.485 3.4 41.943-11.315l81.316-141.363c18.995-33.044 21.156-67.082 5.939-93.389-15.227-26.337-45.824-41.421-83.917-41.421z" />
<glyph unicode="&#x54;" d="M512 882.862c-240.159 0-434.862-194.693-434.862-434.862s194.703-434.862 434.862-434.862c240.169 0 434.862 194.693 434.862 434.862s-194.693 434.862-434.862 434.862zM658.964 479.406h-125.798v-115.005c0-29.225-0.307-46.111 2.775-54.395 3.062-8.151 10.742-16.753 19.036-21.658 11.223-6.758 23.962-9.994 38.236-9.994 25.498 0 40.561 3.379 65.741 19.968v-75.725c-21.504-10.138-40.243-15.985-57.59-20.122-17.51-4.147-36.25-6.154-56.535-6.154-23.040 0-36.547 2.918-54.374 8.745-17.654 5.837-32.707 14.141-45.169 24.934-12.585 10.711-21.197 22.077-25.958 34.212-4.915 12.145-7.199 29.676-7.199 52.716v162.478h-67.584v85.248c19.814 6.451 41.902 15.688 55.9 27.668 14.121 11.96 25.477 26.399 33.946 43.141 8.602 16.916 14.408 38.267 17.644 64.205h81.121v-125.778h125.788v-94.484z" />
<glyph unicode="&#x55;" d="M512 882.862c-240.159 0-434.862-194.693-434.862-434.862 0-240.159 194.703-434.862 434.862-434.862 240.169 0 434.862 194.703 434.862 434.862 0 240.169-194.693 434.862-434.862 434.862zM601.958 613.898c10.947 22.958 48.916 75.090 61.409 87.552 16.804 16.814 28.682 11.203 38.267 1.577 9.646-9.626 13.783-23.030-1.556-38.318-12.462-12.472-63.785-49.807-86.917-61.102-6.564-3.164-14.152 4.096-11.203 10.291zM506.143 787.507c13.619 0 26.010-4.444 26.010-28.211 0-17.603-10.015-129.208-18.493-153.17-2.324-6.482-12.831-6.205-15.196 0.645-8.407 24.34-18.289 134.881-18.289 152.525 0 21.678 12.431 28.211 25.969 28.211zM310.671 703.027c9.646 9.615 21.504 15.227 38.277-1.577 12.503-12.462 50.524-64.594 61.409-87.552 2.97-6.195-4.659-13.455-11.182-10.291-23.132 11.295-74.455 48.63-86.917 61.102-15.329 15.288-11.223 28.692-1.587 38.318zM721.92 195.021c0-22.303-25.825-40.684-65.464-40.684-45.169 0-60.621 12.227-60.662 35.901 0 6.994 0.604 12.984 2.232 17.316 0 0-1.085 0.369-2.294 0.061-19.282-32.922-80.599-58.163-130.099-58.163-55.849 0-92.047 36.557-101.202 92.826-5.878 35.994-2.15 159.826 1.024 218.061h-50.903v29.85c0 22.364 25.795 35.912 65.434 35.912 45.179 0 60.631-12.329 63.037-35.912 1.679-16.507-1.731-196.803-2.017-217.344-0.43-31.785 21.791-45.332 43.438-45.332 40.018 0 89.016 19.548 106.516 47.749 0.184 73.083 0.778 216.842 4.424 244.675 11.756 7.578 65.454 8.796 76.605 0 2.877-21.576 1.413-236.472 0.645-297.431h49.285v-27.484z" />
<glyph unicode="&#x57;" d="M512 882.862c-240.159 0-434.862-194.693-434.862-434.862s194.703-434.862 434.862-434.862c240.179 0 434.862 194.693 434.862 434.862s-194.683 434.862-434.862 434.862zM737.823 548.332l0.338-14.397c0-146.985-111.903-316.477-316.477-316.477-62.904 0-121.324 18.371-170.639 49.992 8.755-1.004 17.541-1.495 26.481-1.495 52.142 0 100.137 17.705 138.199 47.503-48.66 1.004-89.702 33.106-103.936 77.302 6.943-1.321 13.896-1.987 21.023-1.987 10.097 0 20.019 1.331 29.297 3.809-50.821 10.271-89.221 55.286-89.221 109.251v1.321c15.063-8.284 32.123-13.414 50.319-13.896-29.798 19.855-49.5 53.965-49.5 92.518 0 20.357 5.458 39.557 15.063 55.951 54.958-67.369 136.899-111.565 229.417-116.204-1.823 8.11-2.816 16.548-2.816 25.334 0 61.409 49.818 111.227 111.237 111.227 31.939 0 60.897-13.568 81.101-35.092 25.498 4.956 49.316 14.234 70.84 26.982-8.438-25.989-25.979-47.841-48.978-61.583 22.497 2.652 44.022 8.776 63.877 17.551-14.909-22.364-33.761-41.892-55.624-57.61z" />
<glyph unicode="&#x58;" d="M512 882.862c-240.159 0-434.862-194.693-434.862-434.862s194.703-434.862 434.862-434.862c240.179 0 434.862 194.693 434.862 434.862s-194.683 434.862-434.862 434.862zM774.38 400.087h-364.513c12.841-58.409 51.384-92.303 125.030-92.303 54.886 0 91.146 19.896 121.498 44.452l84.111-90.020c-47.872-42.045-101.622-73.636-209.142-73.636-183.429 0-282.767 107.52-282.767 260.608 0 150.702 114.463 258.222 268.79 258.222 178.77 0 268.708-133.192 256.993-307.323zM518.533 590.582c-59.668 0-102.861-33.874-111.032-99.338h207.995c-2.294 60.795-39.69 99.338-96.963 99.338z" />
<glyph unicode="&#x61;" d="M806.687 657.101c-5.98 6.922-14.582 10.721-23.624 10.721h-434.319l-5.97 36.69c-2.621 15.206-15.667 26.235-30.986 26.235h-70.738c-17.357 0-31.447-14.1-31.447-31.457 0-17.316 14.090-31.468 31.447-31.468h44.032l58.45-350.7c0.307-1.382 0.942-2.601 1.362-3.83 0.635-1.69 0.942-3.226 1.69-4.762 1.106-2.15 2.468-3.83 3.85-5.673 0.901-1.229 1.843-2.458 2.918-3.543 1.843-1.679 4.004-2.908 6.113-4.137 1.27-0.614 2.161-1.526 3.543-1.987 3.686-1.382 7.537-2.304 11.51-2.304h345.651c17.326 0 31.437 13.957 31.437 31.447 0 17.336-14.111 31.304-31.437 31.304h-318.956l-5.212 31.447h355.615c15.657 0 28.836 11.51 31.15 27.003l31.293 219.996c1.372 9.083-1.393 18.125-7.373 25.016v0zM746.711 605.123l-8.899-62.925h-111.841v62.925h120.74zM594.514 605.123v-62.925h-94.362v62.925h94.362zM594.514 510.73v-62.73h-94.362v62.73h94.362zM468.89 605.123v-62.925h-94.372c-1.71 0-3.072-0.481-4.608-0.901l-10.609 63.826h109.588zM374.979 510.73h93.911v-62.73h-83.456l-10.455 62.73zM625.971 448v62.73h107.387l-9.052-62.73h-98.335zM468.89 212.347c0-26.081-21.207-47.104-47.288-47.104-25.928 0-47.084 21.023-47.084 47.104 0 25.917 21.146 47.104 47.084 47.104 26.081 0 47.288-21.176 47.288-47.104v0zM751.606 212.347c0-26.081-21.156-47.104-47.104-47.104-26.081 0-47.237 21.023-47.237 47.104 0 25.917 21.156 47.104 47.237 47.104 25.948 0 47.104-21.176 47.104-47.104v0z" />
<glyph unicode="&#x65;" d="M772.782 317.614c0-11.428-3.215-22.026-8.376-31.355l-164.68 184.238 162.888 142.52c6.339-10.056 10.158-21.873 10.158-34.632v-260.772zM512 437.053l226.652 198.318c-9.288 5.089-19.773 8.212-31.068 8.212h-391.168c-11.315 0-21.801-3.123-31.058-8.212l226.642-198.318zM575.191 449.055l-52.46-45.937c-3.072-2.673-6.892-4.014-10.732-4.014s-7.66 1.341-10.732 4.024l-52.47 45.926-166.758-186.604c10.004-6.267 21.709-10.025 34.376-10.025h391.168c12.667 0 24.381 3.758 34.376 10.025l-166.769 186.604zM261.376 613.018c-6.339-10.056-10.158-21.873-10.158-34.632v-260.782c0-11.428 3.195-22.026 8.376-31.355l164.649 184.279-162.867 142.49z" />
<glyph unicode="&#x66;" d="M620.8 436.531h-76.36v-240.2h-91.412v240.2h-64.891v91.771h64.891v79.954c0 49.234 30.474 79.708 91.412 91.423h87.839v-87.48h-49.838c-25.334 0-38.001-10.281-38.001-30.833v-53.064h91.423c-10.045-58.552-15.063-89.139-15.063-91.771z" />
<glyph unicode="&#x67;" d="M600.084 748.186h-143.206c-63.795 0-107.971-13.988-147.712-46.838-31.252-26.972-49.92-66.161-49.92-104.847 0-59.607 45.435-122.982 129.659-122.982 8.11 0 17.091 0.85 24.975 1.587l-1.147-2.806c-3.389-8.131-6.615-15.78-6.615-27.699 0-23.255 11.213-37.612 22.077-51.456l1.362-1.772-2.406-0.195c-34.785-2.355-99.523-6.82-146.811-35.881-55.849-33.198-60.191-81.5-60.191-95.478 0-55.736 51.927-112.005 167.967-112.005 134.902 0 205.527 74.424 205.527 147.958 0 54.385-31.877 81.244-65.72 109.763l-28.559 22.18c-8.837 7.332-19.825 16.425-19.825 33.28 0 16.558 10.977 27.505 20.685 37.151l1.044 1.034c30.822 24.279 65.782 51.835 65.782 111.391 0 59.873-37.427 90.819-55.45 105.687h47.555c0.584 0 1.137 0.174 1.628 0.471l40.929 25.743c1.137 0.717 1.72 2.15 1.341 3.492-0.389 1.311-1.618 2.222-2.97 2.222v0zM426.424 180.644c-82.217 0-137.472 38.39-137.472 95.59 0 37.325 22.569 64.44 67.113 80.579 35.635 11.981 81.664 12.595 82.115 12.595 7.793 0 11.735 0 17.92-0.778 57.549-40.98 85.228-62.464 85.228-103.444-0.010-52.152-44.032-84.541-114.903-84.541v0zM425.677 495.473c-69.038 0-97.669 90.726-97.669 139.346 0 24.689 5.591 43.633 17.152 57.958 12.534 15.688 34.038 25.836 54.743 25.836 63.365 0 98.396-85.207 98.396-144.056 0-9.288 0-37.53-19.497-57.17-13.128-13.107-34.478-21.914-53.125-21.914v0zM800.758 669.891h-75.438v75.213c0 1.71-1.423 3.082-3.144 3.082h-32.461c-1.69 0-3.082-1.382-3.082-3.082v-75.213h-75.039c-1.731 0-3.123-1.393-3.123-3.092v-32.86c0-1.71 1.393-3.103 3.123-3.103h75.039v-75.684c0-1.7 1.393-3.072 3.082-3.072h32.461c1.72 0 3.144 1.372 3.144 3.072v75.684h75.438c1.69 0 3.082 1.393 3.082 3.103v32.86c0 1.731-1.362 3.092-3.082 3.092v0z" />
<glyph unicode="&#x68;" d="M731.085 704.102c-94.822 0-171.653-63.078-219.085-137.001-47.432 73.912-124.262 137.001-219.095 137.001-127.652 0-190.812-87.491-190.812-195.4 0-314.563 409.907-495.565 409.907-495.565s409.897 181.002 409.897 495.565c0 107.909-63.171 195.4-190.812 195.4z" />
<glyph unicode="&#x69;" d="M324.936 699.668h374.129c35.543 0 64.604-26.286 64.604-64.614v-374.118c0-38.318-29.061-64.614-64.604-64.614h-374.129c-35.533 0-64.614 26.286-64.614 64.614v374.129c0.010 38.318 29.092 64.604 64.614 64.604v0zM627.005 643.748c-12.483 0-22.661-10.189-22.661-22.671v-54.241c0-12.483 10.179-22.661 22.661-22.661h56.904c12.442 0 22.641 10.179 22.641 22.661v54.241c0 12.483-10.199 22.671-22.641 22.671h-56.904zM706.785 486.81h-44.298c4.178-13.67 6.461-28.191 6.461-43.172 0-83.743-70.062-151.613-156.457-151.613-86.405 0-156.457 67.871-156.457 151.613 0 14.981 2.273 29.501 6.461 43.172h-46.213v-212.634c0-10.998 8.991-20.009 20.009-20.009h350.505c11.018 0 19.999 9.011 19.999 20.009v212.634zM512.492 547.041c-55.818 0-101.1-43.848-101.1-97.956 0-54.098 45.281-97.956 101.1-97.956s101.079 43.858 101.079 97.956c0 54.108-45.24 97.956-101.079 97.956v0z" />
<glyph unicode="&#x6a;" d="M813.691 483.195c-0.963 8.561-10.947 15.012-19.579 15.012-27.924 0-52.695 16.384-63.089 41.738-10.609 25.979-3.768 56.248 17.029 75.336 6.564 5.99 7.352 16.015 1.864 22.979-14.295 18.135-30.525 34.54-48.271 48.742-6.943 5.571-17.132 4.803-23.153-1.874-18.156-20.111-50.78-27.587-75.991-17.070-26.235 11.039-42.783 37.622-41.155 66.15 0.532 8.97-6.021 16.763-14.961 17.797-22.764 2.632-45.722 2.714-68.547 0.184-8.817-0.983-15.38-8.581-15.073-17.439 0.983-28.252-15.759-54.374-41.728-65.014-24.914-10.168-57.303-2.755-75.418 17.183-5.99 6.574-16.005 7.383-22.989 1.925-18.258-14.316-34.867-30.73-49.285-48.732-5.622-7.004-4.792-17.142 1.823-23.153 21.207-19.21 28.047-49.746 17.029-76.022-10.516-25.047-36.516-41.175-66.284-41.175-9.667 0.307-16.548-6.185-17.613-14.971-2.683-22.876-2.714-46.213-0.133-69.284 0.963-8.602 11.254-14.991 19.978-14.991 26.542 0.676 51.988-15.739 62.689-41.738 10.65-25.969 3.799-56.238-17.039-75.346-6.523-5.99-7.352-15.995-1.843-22.948 14.141-18.033 30.403-34.437 48.189-48.763 6.984-5.632 17.132-4.844 23.194 1.833 18.227 20.163 50.852 27.617 75.95 17.091 26.307-11.008 42.854-37.591 41.226-66.13-0.543-8.97 6.052-16.783 14.94-17.797 11.653-1.362 23.357-2.038 35.113-2.038 11.151 0 22.292 0.614 33.444 1.853 8.837 0.983 15.38 8.591 15.084 17.449-1.024 28.242 15.749 54.364 41.687 64.973 25.078 10.24 57.324 2.755 75.459-17.162 6.021-6.554 15.974-7.352 22.989-1.925 18.217 14.295 34.796 30.679 49.285 48.732 5.622 6.984 4.823 17.142-1.823 23.163-21.207 19.19-28.078 49.746-17.070 76.001 10.353 24.709 35.389 41.298 62.331 41.298l3.758-0.102c8.745-0.707 16.783 6.021 17.838 14.95 2.703 22.897 2.734 46.203 0.143 69.284v0zM511.406 347.085c-56.044 0-101.622 45.588-101.622 101.632s45.578 101.632 101.622 101.632c56.054 0 101.632-45.588 101.632-101.632s-45.578-101.632-101.632-101.632v0z" />
<glyph unicode="&#x6b;" d="M756.562 708.905l-333.466-333.466-155.658 155.658-94.126-94.126 249.713-249.876 427.674 427.674z" />
<glyph unicode="&#x6c;" d="M526.1 217.313l-100.874-98.417c-42.742-41.656-111.739-41.441-154.225 0.328l-95.949 94.945c-42.476 42.004-42.209 109.691 0.44 151.46l100.874 98.488c42.629 41.667 111.718 41.411 154.194-0.471l-59.986-59.382c-19.108 6.226-40.878-1.239-55.962-16.026l-62.228-60.733c-21.361-20.644-21.443-54.774-0.338-75.663l57.784-56.883c21.228-20.972 55.818-21.115 77.015-0.328l62.218 60.733c14.418 14.1 22.395 37.263 17.388 55.101l60.17 58.245c42.281-42.015 42.117-109.629-0.522-151.398zM573.573 560.64c14.244 14.111 37.366 14.111 51.456-0.133 14.326-14.316 14.254-37.478-0.082-51.712l-172.462-171.438c-14.397-14.264-37.54-14.049-51.661 0.184-14.080 14.326-14.080 37.478 0.236 51.599l172.513 171.5zM848.998 535.316l-104.53-101.939c-41.871-40.837-109.588-40.724-151.296 0.471l58.644 57.477c17.961-4.884 41.042 2.724 55.112 16.456l66.519 64.881c20.951 20.603 21.033 53.647 0.246 74.291l-56.668 56.044c-20.777 20.511-54.62 20.634-75.612 0.205l-66.591-64.922c-14.807-14.541-22.282-35.441-16.251-53.699l-59.761-57.467c-41.636 41.083-41.462 107.694 0.389 148.552l104.724 102.052c41.81 40.878 109.517 40.653 151.327-0.451l94.249-93.379c41.687-41.073 41.523-107.581-0.502-148.572z" />
<glyph unicode="&#x6d;" d="M209.592 750.408h604.815v-133.12h-604.815v133.12zM209.592 514.56h604.815v-133.12h-604.815v133.12zM209.592 278.723h604.815v-133.12h-604.815v133.12z" />
<glyph unicode="&#x70;" d="M544.696 334.602c-30.638 2.376-43.5 17.572-67.523 32.164-13.22-69.294-29.358-135.731-77.179-170.435-14.756 104.735 21.668 183.388 38.584 266.895-28.836 48.558 3.482 146.289 64.317 122.204 74.865-29.624-64.829-180.531 28.938-199.383 97.915-19.681 137.892 169.892 77.179 231.537-87.726 89.006-255.365 2.017-234.752-125.42 5.018-31.15 37.212-40.612 12.872-83.599-56.146 12.442-72.899 56.719-70.748 115.763 3.471 96.635 86.825 164.28 170.435 173.65 105.728 11.827 204.974-38.82 218.665-138.281 15.421-112.251-47.729-233.83-160.788-225.096v0z" />
<glyph unicode="&#x72;" d="M596.675 13.148c-3.645 0-7.578 0.768-10.998 2.458-7.557 4.116-12.186 11.95-12.186 20.5l38.738 193.894c-416.973 0-442.798-129.802-465.398-200.837-3.348-10.609-15.094-15.862-26.092-13.681-10.793 2.212-18.637 11.735-18.637 22.702 0 259.021 193.26 369.183 509.901 369.183l-38.758 180.142c0 8.284 4.628 16.599 12.442 20.5 7.578 3.912 16.63 3.676 23.921-1.219l302.039-275.569c6.574-4.403 10.281-11.725 10.281-19.528 0-7.578-3.707-14.838-10.281-19.026l-301.804-275.825c-4.157-2.458-8.53-3.697-13.169-3.697v0z" />
<glyph unicode="&#x73;" d="M561.551 333.271l204.503-204.493 65.157 65.157-204.483 204.493c-8.233-12.769-17.838-24.924-29.010-36.086-11.203-11.203-23.368-20.818-36.168-29.071zM562.309 704.44c-84.060 84.050-221.235 83.651-305.787-0.911-84.593-84.593-85.033-221.788-0.983-305.848 72.98-72.98 185.907-82.248 269.804-28.201 12.79 8.243 24.965 17.859 36.168 29.071 11.172 11.172 20.777 23.306 29.010 36.076 54.067 83.855 44.79 196.813-28.211 269.814zM496.343 463.708c-48.66-48.65-127.447-49.039-175.626-0.86-48.118 48.118-47.677 126.863 0.973 175.524 48.62 48.62 127.334 49.019 175.452 0.901 48.179-48.179 47.831-126.945-0.799-175.565z" />
<glyph unicode="&#x74;" d="M669.204 479.406h-125.798v-115.005c0-29.225-0.307-46.111 2.775-54.395 3.062-8.151 10.742-16.753 19.036-21.658 11.223-6.758 23.962-9.994 38.236-9.994 25.498 0 40.561 3.379 65.741 19.968v-75.725c-21.504-10.138-40.243-15.985-57.59-20.122-17.51-4.147-36.25-6.154-56.535-6.154-23.040 0-36.547 2.918-54.374 8.745-17.654 5.837-32.707 14.141-45.169 24.934-12.585 10.711-21.197 22.077-25.958 34.212-4.915 12.145-7.199 29.676-7.199 52.716v162.478h-67.584v85.248c19.814 6.451 41.902 15.677 55.9 27.658 14.121 11.96 25.477 26.399 33.946 43.141 8.602 16.916 14.408 38.267 17.644 64.215h81.121v-125.778h125.788v-94.484z" />
<glyph unicode="&#x75;" d="M601.958 593.418c10.947 22.958 48.916 75.090 61.409 87.552 16.804 16.804 28.682 11.192 38.267 1.577 9.646-9.626 13.783-23.030-1.556-38.318-12.462-12.472-63.785-49.807-86.917-61.092-6.564-3.185-14.152 4.086-11.203 10.281zM506.143 767.027c13.619 0 26.010-4.434 26.010-28.211 0-17.603-10.015-129.208-18.493-153.17-2.324-6.482-12.82-6.205-15.186 0.645-8.407 24.33-18.289 134.881-18.289 152.515-0.010 21.678 12.421 28.221 25.958 28.221zM310.671 682.547c9.646 9.615 21.504 15.227 38.277-1.577 12.503-12.462 50.524-64.594 61.409-87.552 2.97-6.195-4.659-13.466-11.182-10.291-23.132 11.295-74.455 48.63-86.917 61.092-15.329 15.299-11.223 28.703-1.587 38.328zM721.92 174.541c0-22.303-25.825-40.684-65.464-40.684-45.169 0-60.621 12.216-60.662 35.901 0 6.984 0.604 12.984 2.232 17.316 0 0-1.085 0.358-2.294 0.061-19.282-32.922-80.599-58.163-130.099-58.163-55.849 0-92.047 36.557-101.202 92.815-5.878 36.004-2.15 159.836 1.024 218.061h-50.903v29.86c0 22.364 25.795 35.901 65.434 35.901 45.179 0 60.631-12.329 63.037-35.901 1.679-16.507-1.731-196.803-2.017-217.344-0.43-31.785 21.791-45.343 43.438-45.343 40.018 0 89.016 19.558 106.516 47.759 0.184 73.083 0.778 216.832 4.424 244.675 11.756 7.578 65.454 8.796 76.605 0 2.877-21.586 1.413-236.472 0.645-297.431h49.285v-27.484z" />
<glyph unicode="&#x77;" d="M783.196 616.172c-19.855-8.765-41.38-14.899-63.877-17.551 22.999 13.742 40.54 35.594 48.978 61.583-21.524-12.749-45.343-22.016-70.84-26.982-20.204 21.524-49.162 35.092-81.101 35.092-61.42 0-111.237-49.818-111.237-111.227 0-8.776 1.004-17.224 2.816-25.334-92.518 4.639-174.459 48.835-229.417 116.204-9.605-16.394-15.063-35.594-15.063-55.951 0-38.564 19.702-72.663 49.5-92.518-18.196 0.492-35.256 5.622-50.319 13.896v-1.321c0-53.965 38.4-98.98 89.221-109.251-9.277-2.478-19.2-3.809-29.297-3.809-7.117 0-14.080 0.666-21.023 1.987 14.244-44.186 55.276-76.298 103.936-77.302-38.062-29.788-86.057-47.503-138.199-47.503-8.94 0-17.715 0.492-26.481 1.495 49.316-31.621 107.735-49.992 170.639-49.992 204.585 0 316.477 169.492 316.477 316.477l-0.338 14.397c21.873 15.729 40.724 35.256 55.624 57.61v0z" />
</font>
</defs>
</svg>
